<?xml version="1.0" encoding="UTF-8"?>
<svg id="Capa_2" data-name="Capa 2" xmlns="http://www.w3.org/2000/svg" viewBox="0 0 1207.19 176.64">
  <defs>
    <style>
      .cls-1 {
        fill: #fff;
        stroke-width: 0px;
      }
    </style>
  </defs>
  <g id="Capa_1-2" data-name="Capa 1">
    <g>
      <path class="cls-1" d="M1169.04,156.94c-31.65-8.72-63.68-12.95-96.26-13.01-4.68,0-6.34-1.55-6.72-6.21-.71-8.6-2.12-17.14-4.04-25.76-.59,5.32-1.2,10.63-1.77,15.95-.42,3.97-.9,7.94-1.14,11.93-.18,3-1.68,3.77-4.5,3.97-20.89,1.54-41.84,2.67-62.62,5.13-12.67,1.5-25.16,4.81-37.57,7.96-4.8,1.22-5.96-.11-7.58-4.37-6.97-18.33-14.61-36.4-21.75-54.66-2.14-5.46-6.04-7.51-11.42-8.05-7.05-.7-7.81-1.69-7.34-8.8.83-12.7,2.64-14.08,15.05-11.43,8.34,1.78,9.12,1.96,7.6,10.59-1.27,7.18,1.62,11.65,6.09,16.28,10.37,10.77,19.52,22.79,32.19,31.21,1.01.67,1.56,2.03,2,3.51-7.13-1.36-11.89-6.71-17.53-10.53-.24.33-.48.67-.72,1,5.99,4.28,11.99,8.57,19.15,13.69,1.19-6.8,2.5-12.4,3.1-18.07,1.73-16.23,2.75-32.47-.2-48.73-1.11-6.1-3.7-10.2-10.28-10.89-1.14-.12-2.21-.73-3.35-.94-3.96-.72-5.27-2.87-4.15-6.79,1-3.51,1.87-7.09,2.41-10.69.67-4.39,3.45-5.81,7.12-4.76,4.6,1.32,9.04,3.31,13.42,5.28,4.1,1.85,5.21,5.32,3.08,9.09-3.89,6.89-2,12.95,2.31,18.51,12.74,16.42,25.7,32.66,38.53,49.01,2.08,2.65,3.91,5.49,5.91,8.32,7.07-9.9,11.57-21.67,15.88-33.52,6-16.49,9.87-33.48,11.83-50.93.46-4.09-.51-7.09-3.65-9.67-3.72-3.05-7.26-6.31-11.21-9.78,1.28-1.97,2.21-3.96,3.63-5.47,4.21-4.5,8.63-8.81,12.96-13.19,2.49-2.52,4.93-3.04,7.75-.31,4.66,4.52,9.43,8.93,14.26,13.27,3.09,2.79,2.69,5.37-.04,8.03-.48.47-.88,1.04-1.43,1.39-9.63,6.12-10.36,14.51-8.27,25.08,5.08,25.67,13.72,49.94,25.06,73.17,2.02-3.05,3.53-6.11,5.74-8.53,13.06-14.34,24.12-30.11,34.21-46.64,3.51-5.75,5.25-10.95,1.82-17.61-3.35-6.51-2.16-8.64,4.52-11.48,3.51-1.49,7.2-2.6,10.89-3.61,3.88-1.06,6.49.27,7.25,4.52.65,3.6,1.3,7.22,2.22,10.76,1.06,4.11-.66,6.94-4.42,7.45-9.4,1.28-11.18,7.67-11.96,15.54-1.81,18.09-.51,35.93,3.5,53.6.52,2.28,1.73,4.4,2.34,5.9,1.34-2.64,2.14-5.36,3.81-7.33,10.13-11.9,20.57-23.53,30.6-35.51,1.38-1.65,1.83-4.91,1.36-7.14-1.94-9.21-.78-11.36,8.32-13.17,1.79-.36,3.6-.65,5.42-.88,3.73-.47,5.61,1.16,5.8,4.98.18,3.65.64,7.29.94,10.93.27,3.26-1.27,5.25-4.51,5.27-8.15.04-11.5,5.26-13.84,12.02-6.24,18.06-12.61,36.07-18.95,54.1-.1.29-.41.51-.83,1.01ZM1123.45,97.95c-.33-.26-.66-.51-.99-.77-7.71,8.9-15.43,17.8-23.14,26.71.31.26.63.53.94.79,7.73-8.91,15.46-17.82,23.19-26.73ZM1007.64,108.79c-.31.3-.62.61-.92.91l11.98,13.8c.53-.53,1.06-1.06,1.59-1.59-4.21-4.38-8.43-8.75-12.64-13.13Z"/>
      <path class="cls-1" d="M481.84,165.72c-2.77-1.75-5.13-2.76-6.9-4.42-24.13-22.71-48.18-45.51-72.24-68.28-.94-.89-1.9-1.76-3.34-3.09,0,13.69,0,26.75,0,39.8,0,6-.02,11.99-.02,17.99,0,9.35.94,10.63,9.78,13.64,1.06.36,2.08.85,3.04,1.94h-50.96c.68-.72.94-1.27,1.29-1.33,9.1-1.58,10.53-7.66,10.44-15.78-.32-30.15-.13-60.31-.14-90.46,0-1.96,0-3.93,0-7.52,3.38,1.79,6.08,2.59,7.94,4.29,17.47,15.91,34.82,31.97,52.17,48.01,7.78,7.19,15.5,14.45,24.09,22.46,0-3.52,0-5.92,0-8.32-.05-14.16-.1-28.32-.15-42.48q-.04-13.18-10.22-20.82h45.72c-.42.79-.57,1.48-.86,1.55-7.97,1.83-9.38,7.26-9.31,14.65.29,31.15.12,62.3.1,93.46,0,1.13-.2,2.26-.43,4.71Z"/>
      <path class="cls-1" d="M618.7,51.39h47.16c-1.19,1.01-1.57,1.58-2.07,1.72-6.39,1.77-8.56,6.54-8.58,12.5-.07,20.15-.11,40.3.1,60.45.11,10.02,2.99,18.84,11.69,25.2,13.35,9.76,37.66,5.85,46.17-8.32,2.34-3.9,3.43-9.1,3.51-13.73.38-21.31.21-42.63.2-63.95,0-8.06-1.51-9.89-9.53-12.06-.62-.17-1.19-.5-1.71-1.63h37.15c-.05.26-.05.8-.18.84-9.69,2.79-10.29,10.38-10.22,18.64.15,17.15.02,34.31-.04,51.46-.08,23.12-11.52,37.61-34.05,42.62-15.02,3.34-29.92,1.93-44-4.02-16.42-6.93-25.13-19.81-25.42-37.76-.29-17.65-.19-35.31-.09-52.96.05-8.14,1.33-16.72-11.37-17.82.43-.4.85-.79,1.28-1.19Z"/>
      <path class="cls-1" d="M292.33,100.78c7.13,0,13.93.16,20.71-.04,6.71-.2,11.14-3.65,13.35-10.08.55-1.6,1.84-2.95,3.44-5.4.8,2.15,1.3,2.87,1.3,3.59.04,10.83.06,21.65-.05,32.48-.01,1.08-.96,2.16-1.48,3.24-.87-.83-2.32-1.53-2.53-2.51-2.06-9.5-8.74-11.62-17.23-11.34-5.65.18-11.32.04-17.44.04v43.94c12.9-.45,25.92.88,38.13-4.84,7.22-3.38,10.86-10.01,14.47-16.65.78-1.43,2.37-2.41,3.58-3.6.48,1.74,1.66,3.61,1.34,5.18-1.84,9.11-3.93,18.17-6.24,27.17-.27,1.05-2.39,2.34-3.65,2.33-28.14-.08-56.27-.33-84.41-.56-1.08,0-2.16-.16-3.49-1.28,1.89-.67,3.77-1.4,5.68-2.02,4.68-1.51,7.04-4.56,7.03-9.61-.06-28.65-.11-57.3,0-85.95.03-7.01-2.99-11.28-10.68-12.29.31-.52.62-1.04.93-1.56h83.74v24.11l-1.18.76c-.91-1.13-2.34-2.13-2.65-3.41-1.8-7.4-6.98-10.91-13.95-11.58-9.4-.9-18.87-1.1-28.72-1.62v41.51Z"/>
      <path class="cls-1" d="M74.55,163.11c12.17-5.5,11.51-5.38,7.18-17.34-3.52-9.74-8.76-13.77-19.22-12.21-6.85,1.02-13.97.32-20.96.14-2.71-.07-4.25.64-5.2,3.32-1.54,4.39-3.57,8.6-5.21,12.96-2.44,6.48-1.4,8.6,4.95,10.91,1.16.42,2.24,1.08,3.18,2.43H0c2.68-1.21,4.01-2.1,5.47-2.43,7.49-1.67,11.15-7.02,14.07-13.55,13.57-30.37,27.28-60.67,41.05-90.94,1.18-2.6,3.19-4.82,4.82-7.21,1.79,2.4,4.03,4.58,5.29,7.22,14.25,29.85,28.37,59.77,42.48,89.69,3.9,8.28,9.9,14.04,19.41,15.8-.16.41-.33.81-.49,1.22h-57.57ZM57.06,89.63c-5.14,12.04-9.86,23.1-14.64,34.31h29.55c-4.96-11.41-9.71-22.36-14.91-34.31Z"/>
      <path class="cls-1" d="M106.33,51.33h51.89c-.91.83-1.19,1.32-1.55,1.39-8.34,1.63-7.9,6.19-5.44,11.23,10.34,21.2,20.93,42.27,32.03,64.62,10.04-21.8,19.73-42.4,29.01-63.19,2.95-6.6,1.22-9.03-8.67-13.92h38.81c-13.27,5.62-16.96,18.32-22.56,29.58-13.38,26.95-26.77,53.9-40.27,80.79-.85,1.69-2.94,4.19-4.03,3.99-1.82-.33-3.9-2.23-4.82-4.01-15.86-30.52-31.54-61.14-47.33-91.7-3.95-7.66-7.87-15.44-17.07-18.77Z"/>
      <path class="cls-1" d="M828.76,51.45c-.53,7.21-1.09,14.82-1.65,22.43-.47.05-.94.1-1.41.15-.57-.88-1.41-1.68-1.68-2.65-2.39-8.4-8.51-12.17-16.63-12.59-5.88-.31-11.92-.06-17.71.96-5.46.97-9,5.04-10.08,10.56-1.05,5.36,2.29,9.12,6.29,11.59,9.48,5.84,19.36,11.03,28.94,16.72,4.99,2.97,10.06,6,14.43,9.78,16.92,14.6,14.1,38.88-5.74,50.85-10.02,6.04-21.04,7.93-32.58,7.25-9.32-.55-18.59-1.43-27.16-5.61-7.25-3.54-8.86-6.45-7.49-14.25.92-5.22,2.08-10.4,3.31-15.56.21-.89,1.51-2.35,1.87-2.23,1.07.36,2.25,1.19,2.79,2.16.79,1.43,1.18,3.11,1.54,4.73,4.15,19.1,27.45,27.17,45.7,17.84,8.92-4.56,13.14-17.24,1.83-24.8-10.21-6.83-21.03-12.74-31.37-19.39-4.73-3.04-8.91-6.92-13.38-10.36-14.95-11.52-11.32-38.53,9.85-46.62,10.09-3.86,20.47-4.1,31-2.98,6.21.66,12.43,1.31,19.33,2.03Z"/>
      <path class="cls-1" d="M949.2,159.62c36.04-7.97,71.92-11.84,108.14-11.14,25.77.5,51.53,2.32,77.26,4.18,9.41.68,18.71,3.08,28.02,4.89,6.2,1.2,6.25,1.47,4.83,7.55q-2.56,10.98-13.75,9.46c-37.69-5.17-75.58-6.72-113.57-5.79-28.12.68-56.17,2.45-83.88,7.75-2.66.51-3.68-.52-4.15-2.82-.93-4.54-1.86-9.08-2.89-14.08Z"/>
      <path class="cls-1" d="M581.94,163.42h-51.86c-.07-.3-.14-.59-.21-.89,2.25-.76,4.5-1.51,6.74-2.28,4.13-1.43,6.2-4.44,6.21-8.7.03-29.98-.02-59.97-.06-89.95,0-.46-.26-.92-.66-2.26-8.45.5-17.06.72-25.59,1.63-4.58.49-7.72,3.55-9.12,8.19-.38,1.27-1.37,2.36-2.07,3.53l-1.21-.46v-21.79h101.61v23.11c-1.33-1.63-2.26-2.32-2.56-3.23-2.13-6.37-6.94-9.17-13.19-9.69-6.94-.58-13.92-.79-21.19-1.17-.16,1.77-.38,3.05-.38,4.33-.01,27.32.05,54.64-.02,81.95-.03,10.61,1.96,14.44,11.52,16.02.41.07.75.58,2.05,1.66Z"/>
    </g>
  </g>
</svg>