<?xml version="1.0" encoding="UTF-8"?>
<svg id="Capa_2" data-name="Capa 2" xmlns="http://www.w3.org/2000/svg" viewBox="0 0 679.78 768.61">
  <defs>
    <style>
      .cls-1 {
        fill: #000;
      }

      .cls-1, .cls-2, .cls-3, .cls-4, .cls-5, .cls-6 {
        stroke-width: 0px;
      }

      .cls-2 {
        fill: #00c9fd;
      }

      .cls-3 {
        fill: #fdfbfd;
      }

      .cls-4 {
        fill: #fd08a7;
      }

      .cls-5 {
        fill: #fdd16b;
      }

      .cls-6 {
        fill: #012864;
      }
    </style>
  </defs>
  <g id="Capa_1-2" data-name="Capa 1">
    <g>
      <path class="cls-4" d="M312.7,741.69c-38.3,44.8-113.13,29.68-143.87-15.88-13.27-19.57-17.74-42.88-19.29-66.08.82-1.97.25-3.87-.25-5.8-4.28-16.58-6.02-33.21-2.42-50.24,6.09-28.81,28.03-56.43,58.9-60.49-1.22-4.64-4.32-8.58-4.89-13.43l-.08.06c4.37,2.84,9.12,1.42,13.84,1.56-.62-2.92-1.8-5.26-3-7.63-8.16-16.2-15.43-32.68-18.08-50.91-7.89-50.06,38.01-92.1,85.25-79.26,2.61.69,5.23,1.39,7.84,2.08,1.53.23,2.4,1.57,3.7,2.26,21.13,10.4,34.71,27.05,35.74,51.23,4.36-.79,8.34-3.09,12.44-2.19,4.17.92,4.84-1.19,5.77-4.25,3.33-12.87,12.39-20.14,25.86-18.92,2.23.17,3.4-.08,3.87-2.94.77-4.7,2.22-9.35,4.57-13.61,2.62-4.76,4.27-4.97,7.32-.67,23.51,33.85,75.49,25.63,90.8-12,1.43-3.29,1.81-7.92,4.28-9.64,2.65-1.84,6.81,1.14,10.41,1.51,17.22,1.75,32.6-5.28,37.26-22.61,1.3-4.83,3.36-7.48,7.94-8.53,4.78,2.1,9.57.06,14.36.07,88.83,9.78,107.91,111.97,84.79,183.82-4.17,13.91-1.95,25.39,2.92,37.62.58,1.45,1.69,2.42,2.8,3.43,5.73,5.22,8.44,11.94,6.88,19.33-1.46,6.94.4,13.04,1.94,19.47,4.51,18.85,7.55,37.77,3.37,57.22-11.51,55.51-81.88,72.03-114.12,36.22-1.16-1.4-2.01-2.12-4.12-1.32-27.06,10.32-42.33,5.6-57.92-17.74-1.39-5.44-3.3-10.81-2.66-16.55.34-3.06-.57-4.13-3.9-4.43-3.9-.35-7.79-1.87-10.97-4.34-2.21-1.71-2.96-.8-4.03,1.08-13.61,24.13-48.29,35.65-74.7,17.54-1.18-.81-2.01-1.29-3.43-.09-15.15,12.87-31.98,15.75-50.75,8.08-1.88,8.15-.53,16.56-3.07,24.58-2.59,8.15-6.06,15.69-11.31,22.43ZM363.8,603.59c5,20.37,25.11,29.83,43.47,20.51,8.28-4.21,14.26-10.78,19.01-18.54,2.44-3.98,4.06-7.11,10.33-7.65,27.5-2.31,37.27-31.98,44.16-54.62.5-1.47.3-3.7,2.63-3.56,5.66.32,11.11-1.04,17.46-2.12-13.52,23.31-29.52,54.65-26.94,81.77,1.36,14.57,8.25,22.09,24.45,19.33,8.36-1.42,13.95-7.11,19.74-12.7,3.14-3.04,4.8-7.24,8.42-10.29.61,23.44,19.7,36.62,35.83,37.22,13.96.52,26.22-3.71,37.59-11.63,15.17-10.57,25.19-25.12,33.18-41.38.78-1.59.51-3.22.65-4.84.2-2.35-.88-3.81-3.16-4.36-2.28-.55-4.35-.28-5.7,1.87-.79,1.26-1.46,2.61-2.05,3.97-5.2,12.15-14.3,21.04-24.33,29.16-11.51,9.66-34.49,17.14-42.56.67-3.03-6.2-4.05-12.83-2.92-19.79,9.88,3.89,22.85,3.83,32.33-1.52,16.24-9.17,27.66-22.6,31.17-41.34,4.58-24.49-15.5-43.18-38.69-35.68-15.29,4.94-28.2,13.62-37.02,27.99-6.67,10.86-11.71,22.14-15.14,34.36-2.78,9.9-8.13,18.5-15.63,25.63-2.38,2.26-5.06,5.48-8.54,3.5-3.22-1.83-1.81-5.7-1.26-8.7,3.24-17.79,10.65-34.02,18.78-49.99,4.79-9.42,10.94-18.18,14.04-28.41,2.56-8.43-1.32-15.61-9.39-18.69-5.95-2.27-10.3.82-14.76,3.63-7.07,4.45-14.83,6.35-23.11,7.55,1.37-4.87,2.82-9.09,3.7-13.43,1.5-7.37-2.14-14.17-8.52-16.6-6.25-2.39-16.88.4-19.43,5.89-5.81,12.51-6.64,26.3,7.29,35.69,1.44.97,2.37,1.76,1.82,3.52-5.28,17.68-13.56,39.5-33.35,44.69-.28-.45-.47-.61-.44-.7.32-.91.63-1.83,1.04-2.71,8.04-16.99,12.64-34.69,8.72-53.48-3.62-17.37-16.24-25.55-33.56-21.06-15.36,3.98-25.25,15.42-34.11,27.49-7.65,10.42-12.04,22.6-15.07,35.08-2.95,12.16-8.5,22.93-15.55,33.07-1.72,2.48-3.85,4.64-6.37,6.28-3.55,2.31-5.06,1.46-5.35-2.71-.27-3.87.42-7.63,1.55-11.28,10.47-33.79,23.15-66.81,35.19-100.05.76-2.08,1.73-2.21,3.62-2.07,10.95.81,21.91,1.88,32.88,2.07,12.8.22,21.28-8.78,19.86-20.15-.92-7.33-8.25-12.17-12.74-8.04-9.6,8.84-21.27,9.13-33.15,9.36-2.59.05-2.68-.99-2.03-2.96,1.56-4.71,3.36-9.37,4.5-14.18,3.07-12.08-5.58-18.59-17.16-17.81-4.77.07-7.73,2.61-9.16,7-2.45,7.55-5.1,15.05-7.08,22.72-1.11,4.31-3.42,4.87-7.08,4.22-16.71-2.73-36.49-.37-50.88,8.94-7.23,4.88-7.66,8.82-4.52,16.01,2.33,5.33,9.5,7.33,15.55,4.82,1.97-.82,3.88-1.95,5.56-3.27,7.93-6.22,17.16-8.25,26.93-8.95,3.9-.28,4.86.49,3.45,4.53-7.97,22.77-15.91,45.55-23.4,68.47-5.06,15.5-8.46,31.28-5.8,47.88,1.68,10.46,12.05,21.45,25.97,15.47,10.58-4.76,19.39-15.03,25.03-25.07ZM235.96,690.79c11.9,1.22,24.98-4.25,37.23-10.64,9.35-4.88,15.97-13.8,21.37-23.01,21.54-37.86.66-81.15-17.53-115.87-9.92-19.01-20.64-37.61-29.49-57.18-4.58-10.13-7.52-20.43-5.76-31.73,2.51-16.14,12.59-28.7,30.32-26.63,6.25.73,11.25,3.82,13.41,9.71,1.94,5.3.85,10.31-3.95,14.33-4.27,3.58-4.87,8.05-2.58,12.47,2.2,4.26,8.2,7.06,13.14,6.14,11.33-2.11,19.1-10.94,18.57-22.42-.52-11.2-5.84-19.95-14.59-27.35-34.11-28.59-86.74-5.89-88.16,38.98-.43,14.56,3.15,28.24,8.68,41.5,9.01,21.61,21.52,41.4,32.32,62.08,8.78,16.81,18.78,33.1,20.47,52.76,1.55,17.93-2.33,33.99-16.27,45.97-20.84,17.92-49,10.24-58.02-12.28-7.14-17.84-4.26-35.26,5.29-51.48,4.88-8.29,10.7-16.06,20.49-19.51,2.59-.91,2.66-3.19,2.05-5.66-1.85-7.55-13.27-14.22-21.09-12.98-13.32,2.12-21.93,11.41-29,21.02-7.1,9.67-11.45,21.3-12.21,33.98-4.35,43.79,30.54,79.11,75.3,77.78Z"/>
      <path class="cls-6" d="M278.81,393.58c-47.24-12.84-93.14,29.2-85.25,79.26,2.65,18.23,9.92,34.71,18.08,50.91,1.2,2.38,2.37,4.71,3,7.63-4.72-.13-9.47,1.28-13.84-1.56.51-1.53.88-2.99-1.91-3.53.79,1.39,1.39,2.43,1.99,3.47.57,4.85,3.67,8.79,4.89,13.43-30.87,4.07-52.81,31.68-58.9,60.49-3.6,17.03-1.85,33.67,2.42,50.24.5,1.93,1.07,3.83.25,5.8-5.06-3.98-9.7-8.44-14.49-12.68-3.61-3.18-6.42-7.26-10.6-9.82-2.44-1.5-3.94-3.91-5.68-6.15-9.21-11.86-18.57-23.6-27.88-35.38,0,0,.05.05.05.05-2.06-4.43-4.6-8.55-8.05-12.05l.05.05c-4.53-6.72-7.13-14.55-12.05-21.05l.06.06c-4.26-7.41-6.17-15.95-11.06-23.05l.06.06c-4.19-12.21-8.81-24.28-12.33-36.7-.48-1.54-.88-2.96,1.29-3.48,3.51,5.51,6.99,11.04,11.16,16.09.36.32.72.64,1.08.96.59.63,1.18,1.27,1.77,1.9.39.4.79.8,1.18,1.2.28.27.56.53.85.8-.01,1.39.7,2.09,2.06,2.17l-.12-.06c.45.28.9.57,1.35.85,2.16,2.45,4.83,4.15,7.83,5.38.64.28,1.29.55,1.93.83l-.09-.07c4.97,5.44,24.85,5.39,29.99,0l-.09.06c.83-.09,1.69-.13,2.1-1.05l-.09.06c.82-.1,1.65-.21,2.1-1.06l-.1.07c.96-.07,1.52-.65,1.92-1.46,6.96-3,11.46-9.01,16.91-13.86,2.03-.43,2.89-1.86,3.23-3.75l-.07.1c.36-.37.72-.74,1.09-1.11l-.1.07c2.25-.58,2.85-2.31,3.04-4.33,11.79-16.93,20.64-34.96,28.94-53.89,6.81,9.31,11.74,19.32,21.09,26.78-.29-12.1,2-23.25,5.79-34.1.91-2.6-1.23-2.64-2.54-3.33-6.47-3.43-12.63-7.26-17.35-13.02.43-.44.14-.54-.1-1.07l.23.23c-.52-.74-1.22-1.17-2.14-1.18l.1.1c-.35-2.56-2.24-3.85-4.19-5.09l.2.15c-.39-.39-.78-.78-1.17-1.17l.16.17c-.38-.39-.77-.78-1.15-1.17l.16.16c-.39-.39-.77-.77-1.16-1.16l.16.16c-.39-.38-.78-.77-1.17-1.15l.16.16c-.39-.39-.78-.78-1.16-1.16l.2.2c-.7-.4-1.4-.8-2.09-1.19l.06.06c-1.32-2.96-2.66-1.74-3.99-.01l.11-.06c-1.22.19-2.01.79-2.06,2.11l.09-.11c-1.43.11-2.57.66-3.13,2.08l.11-.08c-6.72,2.34-13.44,1.56-20.17,0l.1.06c-.7-.35-1.4-.71-2.11-1.06l.1.06c-.4-.35-.8-.7-1.2-1.06l.16.18c-.69-1.26-1.79-1.89-3.17-2.11l.16.14c-.69-1.02-1.28-2.26-2.87-1.32-2.49-.55-3.06-4.12-6.06-3.85-.34.67-.68,1.35-1.02,2.02l.07-.1c-.83.46-1.02,1.24-1.05,2.11l.06-.11c-.82.47-.97,1.27-1.08,2.1l.07-.09c-1.96,1.13-3.12,2.74-3.05,5.09l.05-.08c-1.37.58-2.09,1.59-2.04,3.1l.06-.07c-1.65.37-2.16,1.52-2.06,3.07l.05-.07c-1.7.38-2.05,1.65-2.06,3.15-.27.31-.54.62-.8.94-.42.33-.84.65-1.26.98,0,0,.12-.1.12-.1-.37.37-.74.74-1.1,1.1,0,0,.1-.11.1-.11-.37.37-.74.74-1.1,1.11,0,0,.1-.11.1-.11-.37.37-.74.74-1.11,1.11,0,0,.11-.11.11-.11-.37.37-.74.74-1.11,1.11,0,0,.11-.11.11-.11-.37.37-.74.73-1.12,1.1,0,0,.11-.11.11-.11-.37.37-.74.73-1.11,1.1,0,0,.11-.06.11-.06-1.97.21-3.19,1.43-4.1,3.06l.11-.08c-.91.03-1.63.39-2.09,1.2,0,0,.18-.18.18-.18-.4.35-.8.71-1.2,1.06,0,0,.11-.05.11-.05-3.46.45-6.34,2.16-9.07,4.19l.13-.1c-11.54,2.92-22.99,3.07-34.32-1.03l.2.1c-1.42-1.39-3.1-2.17-5.11-2.19l.09.07c-.58-1.37-1.64-2.01-3.09-2.06l.08.06c-1.23-1.95-2.67-3.64-5.1-4.08l.04.14c-2.19-4.19-6.45-6.5-9.14-10.35-5.62-8.04-8.27-17.36-12.41-26.02-4.86-10.16-4.68-21.46-8.4-31.8l.06.05c-4.78-20.67-5.49-42.41-.63-63.15.56-2.46,1.51-5.15,1.63-7.84l-.04.04c.82-1.03,1.11-2.06,0-3.09l.04.03c1-3.01,2.01-6.01,3.01-9.02l-.06.06c.57-5.05,3.6-9.19,5.2-13.79,5.8-16.72,17.66-29.06,29.05-41.76,1.73-1.93,5.25-1.87,6.8-4.5l-.06.06c9.02-4.99,18.58-7.7,29-7.11,3.28.19,6.48,1.62,9.83.66,4.58.77,8.04,3.75,11.95,6.22,6.35-24.7,11.25-49.75,18.24-74.29,10.07-13.64,10.97-42.61,26.26-50.35,9.64-4.5,19.7-2.53,29.71-.98-.63,2.35,1.59,2.15,2.66,2.77,12.72,7.02,19.3,21.61,17.26,35.89,9.6-12.6,17.15-26.52,29.01-37.27,7.59-7.05,18.55-8.79,26.08-4.38,3.51,2.03,7.2,3.66,11.09,4.83l-.11-.07c.62,1.32,1.66,1.99,3.1,2.06,0,0-.09-.06-.09-.06.36.37.72.75,1.08,1.12,0,0-.08-.12-.08-.12.68,2.02,1.81,3.57,4.08,3.94,1.11,2.2,3.63,3.4,4.22,5.97.6.73,1.19,1.47,1.79,2.2,0,0-.08-.12-.08-.12l1.09,2.11-.06-.11c.06.85.24,1.64,1.07,2.1l-.06-.11c.03.86.13,1.69,1.05,2.11l-.06-.09c.47,3.66.92,7.32,3.82,10.06,6.01,20.65,1.09,40.2-12.07,56.97-1.59,2.01-3.95,3.73-4.44,7.27,5.81-1.03,11.25-2.06,16.61-.16,1.67.59,3.19,1.91,5.16,1.1.29-.08.59-.17.88-.25l-.11.06c1.19,0,2.29-.21,3.12-1.17l-.16.09c6.89-1.08,13.69-.99,20.47.94,3.01.86,5.45,3.18,8.75,3.15l-.11-.05c.36.37.73.74,1.09,1.11l-.08-.12c.65,1.42,1.67,2.46,3.11,3.07l-.12-.08c.37.37.73.75,1.1,1.12l-.1-.11c.69,1.14,1.38,1.2,2.06,0,0,0-.1.12-.1.12.36-.53.73-1.07,1.09-1.6-.17-.85.33-1.24,1.03-1.48,1.32.72,1.44-.51,1.91-1.18l-.17.24c.74-.56,1.16-1.29,1.15-2.24.29-.3.58-.59.88-.89l1.11-1.05c.31-.33.61-.65.92-.98,1.34-.06,2.03-.75,2.08-2.09.29-.27.58-.54.87-.82.49-.2,1.42.09,1.13-1,12.57-11.25,26.65-17.16,43.74-12.35,1.21.34,2.17.16,3.31-.35,14.42-6.42,27.48-3.75,39.3,6.18,1.67,1.4,2.41,1.64,3.79-.21,4.2-5.64,9.31-10.44,15.32-14.02,11.4-6.8,23.43-10.82,36.87-6.62,1.07.33,1.94.95,3.22.16,8.56-5.34,17.54-4.27,26.23-.74,5.06,2.06,8.72,2.96,11.22-3.24.74-1.82,2.83-3.3,4.61-4.45,2-1.3,2.05-2.13.83-4.23-8.51-14.7-5.05-35.34,7.91-48.02,1.89-1.85,5.01-2.66,5.56-5.82,3.3.3,6.44-1.25,9.22-2.22,6.3-2.19,12.58-.65,18.81-1.39,2.68-.32,5.73,2.67,8.65,4.07,1.78.86,3.64,1.57,5.46,2.34l-.06-.06c4.29,4.13,9.01,7.9,11.51,13.56,2.66,6.01,7.55,11.31,5.82,18.72-.12.51.47,1.18.73,1.78,0,0-.06-.05-.06-.05.02,4.34.04,8.68.05,13.02,0,0-.23.16-.23.16l.18-.21c1.24.77.9,3.12,3.01,3.01.41.23.83.46,1.24.69.06-.16.11-.32.17-.48-.48-.05-.97-.1-1.45-.15.88-.91,2.1-1.25,3.16-.88,5.23,1.82,10.67-.76,15.89.85-.49.04-.99.09-1.48.13.07.18.14.35.21.53.42-.23.83-.46,1.25-.68,16.39,3.3,24.5,11.63,32.02,26.04,0,0-.06-.06-.06-.06,1.02,2.68,2.04,5.36,3.06,8.04-.14.27-.93.34-.25.85.07-.3.13-.6.2-.9-.14,6.2,1.41,12.31.73,18.56-.37,3.42-1.12,6.7,3.84,8.72,2.12.86,5.21,3.77,6.17,7.53,1.02,3.95,4.23,7.14,5.29,11.25l-.05-.05c.17,2.82.25,5.67,2.07,8.06l-.06-.05c-.33,3.02,2.63,5.58,1.2,8.74,3.25.83.95,3.6,1.83,5.26-.61.73-1.09,1.49-.24,2.89.08-1.25.13-2.09.18-2.93,1.81,2.49.4,5.4,1.05,8.04-1.02,1.38-.98,2.84-.05,4.35v-4.4c2.07,7.43.26,15.02.91,22.51.03.39.11,1.6-.82.45-.26-.32-.28-.84-.44-1.38-1.73,3.51,1.41,7.13-.61,10.48,0,0-.24-.27-.24-.27l.27.24c-2.3,5.91-3.21,12.29-6.04,18.03l.04-.04c-3.73,5.34-5.18,11.96-9.37,17.04-5.59,6.78-11.6,13.09-19.67,17.01-.08-.07-.16-.14-.24-.2.1.05.19.1.29.16-1.21,1.79-3.05,2.53-5.04,3.03,0,0-.2-.24-.2-.24l.23.21c-2.05,1.69-4.57,2.29-7.03,3.04,0,0-.17-.25-.17-.25,0,0,.21.2.21.2-3.01,1.01-6.02,2.02-9.03,3.03-.26-.12-.32-.88-.82-.27l.86.23c-4.04.84-8.02,1.47-12.25,1.55-3.57.07-7.29,1.65-11.12,1.27-.24-.02-1.75.31-.41-.71.32-.25.79-.3,1.66-.62-11.59.43-21.54-4.48-32.06-6.6.66-1.23-.23-1.83-1.04-2.36-3.48-2.26-6.32-5.25-9.29-8.06-5.1,7.9-12.67,12.76-20.71,17.06-4.58,1.06-6.64,3.7-7.94,8.53-4.66,17.32-20.04,24.36-37.26,22.61-3.6-.37-7.76-3.35-10.41-1.51-2.47,1.72-2.85,6.35-4.28,9.64-15.33,37.63-67.29,45.85-90.8,12-3.04-4.31-4.69-4.09-7.32.67-2.35,4.26-3.8,8.91-4.57,13.61-.47,2.87-1.64,3.11-3.87,2.94-13.46-1.22-22.53,6.06-25.86,18.92-.93,3.06-1.6,5.17-5.77,4.25-4.1-.9-8.08,1.4-12.44,2.19-.99-24.13-14.65-40.88-35.74-51.23-1.3-.69-2.17-2.03-3.7-2.26.01-.94.6-2.14-.49-2.71-5.58-2.9-11.21-5.7-17.01-8.63.47,5.74.51,5.59,5.42,7,1.44.41,3.99-.6,4.23,2.26ZM375.79,340.44c12.22-46.44,24.64-93.34,37.53-139.78,1.53-5.61.32-7.58-5.02-10.08-4.24-1.98-8.65-2.06-13.15-2.09-2.91-.02-3.76,1.28-3.22,4,.77,3.87.17,7.68-.41,12.01-6.95-12.21-12.88-15.58-25.05-13.56-7.5,1.24-14.08,5.01-19.5,10.33-21.6,21.21-30.92,48.19-34.94,77.24-1.99,14.37-5.56,27.78-14.26,39.53-2.76,4.22-6.71,3.07-6.92-2.09-.3-5.85.34-11.62,1.51-17.33,5.33-26.08,13.11-51.5,20.81-76.94,2.58-8.53.95-11.41-7.7-14.03-2.8-.85-5.57-.78-8.39-.83-3.08-.06-4.43,1.18-4.3,4.51.14,3.72.99,7.62-1.17,11.23-5.3-11-13.33-15.4-25.37-13.84-11.66,1.51-19.75,9.01-25.99,17.81-21.17,29.85-30.29,63.33-27.15,99.82,1.28,22.72,24.61,34.55,41.65,14.72,4.31-5.05,7.3-10.93,10.58-17.1,1.96,11.82,8.35,20.49,21.16,17.74,12.62-3.11,20.9-17.34,24.55-29.36.64,1.18.93,1.58,1.09,2.03,9.29,24.98,31.86,17.14,44.4-.67.14.84.4,1.34.27,1.72-3.05,9.07-6.13,18.13-9.21,27.2-.54,1.6-1.63,2-3.31,2.32-17.83,3.5-37.92,15.23-43.68,33.49-4.86,15.59,3.76,28.26,19.19,28.4,13.03.12,22.68-6.49,30.79-15.73,8.73-9.94,14.69-21.58,19.21-33.94.99-2.7,2.33-3.88,5.22-4.08,7.98-.54,15.88-.12,24.13,1.06-3.44,9.07-5.98,19.16.22,27.68,6.72,9.11,17.36,11.2,29.01,6.34,14.4-6.01,22.6-17.83,29.77-30.86,2.35-4.26,2.48-11,7.65-12.24,4.92-1.17,10.28,1.63,15.33,3.25,5.64,1.8,11.01,4.72,17.18,4.46,4.84-.2,11.03-5.29,11.43-9.61.51-5.5-4.38-5.78-7.7-7.51-10.62-3.94-21.94-4.46-33.2-6.23,15.1-47.2,27.81-94.67,43.23-141.69,1.65-5.22-.07-8.43-4.22-10.82-4.56-2.63-9.61-3.51-14.87-3.07-2.51.21-3.68,1.24-2.73,3.92,1.26,3.56.39,6.9-1.24,11.16-1.45-3.27-2.42-5.71-4.24-7.68-6.31-6.83-17.62-7.94-27.66-2.84-8.82,4.48-15.61,11.24-21.32,19.05-20.58,28.17-31.8,59.41-29.89,94.66.53,9.83,4.35,18.36,14.21,22.12,9.43,3.59,17.11-.92,23.89-7.09,3.49-3.18,6.91-6.47,9.7-10.46-3.32,10.39-7.05,20.57-10.65,30.79-.6,1.71-1.55,2.16-3.24,2.4-11.44,1.65-22.38,4.72-31.6,12.11-1.24,1-2.49,1.06-3.71.76-9.46-2.32-19.13-1.95-28.73-2.28ZM152.16,371.71c-3.72-68.43,22.26-128.16,52.87-187.83.44,1.65.68,2.01.59,2.25-10.81,27.03-18.46,55.05-25.37,83.24-6.92,28.44-20.53,92.49-4.28,117.58,10.36,17.43,33.08,14.74,42.99-2-18.06-.08-22.72-19.28-23.04-33.8-.84-25.4,2.95-50.33,7.92-75.13,10.42-51.62,27.11-102.09,52.34-148.44,2.09-3.86,3.24-7.95.35-11.7-6.89-8.93-18.73-11.68-26.89-2.45-2.31,2.61-4.54,5.33-6.41,8.26-29.16,44.9-50.14,93.95-65.52,145.14-1.38-21.94.89-43.57,3.49-65.1,3.01-24.97,7.29-49.76,14.33-73.99.94-3.25,1.06-6.85-1.14-9.6-5.31-6.64-12.87-6.9-20.47-6.27-5.55.46-9.03,3.96-10.84,9-2.22,6.21-4.29,12.48-6.17,18.8-12.5,42.04-20.81,85.06-29.97,127.89-6.39,28.26-14.1,66.76-35.63,87.38-7.66,6.78-16.14,5.41-21.12-3.54-11.64-22.39-2.19-63.44,9.03-84.95,3.27-6.55,7.16-13.2,13.7-17.35,4.62-2.93,8.34-1.37,9.95,3.8,1.06,3.38,1.45,6.87.85,10.35-2.46,14.15-6.63,27.64-15.34,39.36-.79,1.07-1.85,2.05-1.39,3.53,1.19,3.84,3.57,6.92,7.25,8.42,5.62,2.37,9.2-3.54,11.65-7.72,5.26-9.13,7.95-19.19,9.76-29.4,3.93-18.36,2-48.27-23.22-46.75-12.96.63-21.83,8.5-29.2,17.88-20.53,26.12-27.86,56.39-26.08,89.06.6,11.14,3.37,21.95,9.98,31.34,16.18,24.09,43.94,18.81,59.43-2.81,11.43-14.62,18.03-31.72,23.41-49.33,13.2-45.65,19.8-92.8,32.15-138.66.76,1.11.92,2.11.73,3.05-9.14,57.03-10.42,115.04-20.81,171.92-1.24,6.81,3.24,12.85,10.05,14.44,2.37.56,4.12.22,4.86-2.68.79-3.07.7-6.4,2.43-9.35,4.48,9.63,5.9,11.43,12.78,16.15ZM578.08,247.28c6.21,4.71,12.54,4.73,19.19,2.81,25.9-7.48,44.71-34.26,42.41-61.32-.84-9.91-5.3-18.11-15.3-22.02-11.13-4.35-21.37-1.46-30.61,4.82-22.19,15.08-34.53,36.93-39.68,62.62-2.63,13.1-5.11,25.87-12.85,37.03-2.56,3.69-4.9,7.59-8.92,9.9-8.78,5.15-4.84-11.31-3.97-15.25,6.21-27.65,15.8-54.12,27.77-79.77,2.78-5.97,2.18-9.59-2.66-13.06-5.98-4.28-12.79-5.1-19.92-3.68-1.79.36-3.01,1.01-2.72,3.25.55,4.28-1.08,8.14-2.52,12.04-8.82,23.85-17.73,47.67-24,72.35-2.57,10.1-5.17,20.25-4.49,30.87.63,9.91,9.32,16.54,19,14.61,17.04-3.65,27.34-19.36,34.42-34.37,3.93,13.76,11.04,23.38,24.8,26.18,9.1,1.85,18.25,1.32,26.89-2.32,25.63-10.79,40.67-30.82,48.93-56.68,1.02-2.98,2.35-12.51-1.68-13.23-1.89-.25-2.73,1.66-3.24,3.25-3.39,10.55-8.87,19.95-15.98,28.34-9.22,10.88-19.36,20.62-34.02,23.81-8.25,1.79-14.44-1.08-18.01-8.74-3.06-6.58-3.46-13.6-2.83-21.43ZM560.05,106.82c-17.1,1.17-27.55,18.6-22.66,35.28,2.11,7.66,13.1,15.61,21.92,14.22,13.57-2.14,23.16-14.86,21.7-29.28-1.17-11.55-10.05-20.24-20.96-20.23ZM198.39,523.43c-.04.14-.15.3-.12.42.18.85.82.06.46-.38-.05-.06-.23-.03-.35-.04Z"/>
      <path class="cls-2" d="M336.67,192.77c-.29.27-.58.54-.87.82-.69.7-1.39,1.4-2.08,2.09-.31.33-.61.65-.92.98-.37.35-.74.7-1.11,1.05-.29.3-.58.59-.88.89-.59.64-1.8.96-1.15,2.24,0,0,.17-.24.17-.24-1.25-.59-1.35.66-1.91,1.18-.71.24-1.2.63-1.04,1.48-.37.53-.73,1.07-1.09,1.6,0,0,.1-.12.1-.12-.69,0-1.38,0-2.06,0,0,0,.1.11.11.11-.08-.65-.36-1.12-1.1-1.12,0,0,.12.08.13.08-.34-1.73-1.55-2.58-3.11-3.07,0,0,.08.12.08.12-.36-.37-.73-.74-1.09-1.11,0,0,.11.05.11.05-9.06-6.24-18.7-8.28-29.22-4.09,0,0,.16-.09.16-.09-1.49-.8-2.3.18-3.12,1.17,0,0,.11-.06.11-.06-.36-.13-.65-.05-.88.25-1.97.81-3.48-.5-5.16-1.1-5.36-1.9-10.8-.87-16.61.16.48-3.54,2.85-5.25,4.44-7.27,13.15-16.77,18.08-36.32,12.07-56.97-.98-3.46-1.5-7.1-3.82-10.06,0,0,.06.09.06.09-.02-.86.03-1.77-1.05-2.11,0,0,.06.11.06.11,0-.89,0-1.76-1.07-2.1,0,0,.06.11.06.11.08-.93-.18-1.69-1.09-2.11,0,0,.08.12.08.12-.21-1.04-.42-2.09-1.79-2.2-.59-2.57-3.11-3.77-4.22-5.97-.79-1.9-2.17-3.19-4.08-3.94,0,0,.08.12.08.12-.36-.37-.72-.75-1.08-1.12,0,0,.09.06.09.06-.59-1.35-1.8-1.78-3.1-2.06,0,0,.11.07.11.07-3.21-2.73-6.65-4.92-11.09-4.83-7.53-4.41-18.5-2.68-26.08,4.38-11.86,10.75-19.41,24.67-29.01,37.27,2.04-14.28-4.53-28.87-17.26-35.89-1.08-.62-3.29-.42-2.66-2.77C208.93,60.12,250.42,26.78,298.96,6.31c23.23-9.86,56.08-12,50.33,22.51-1.36,7.2-5.21,13.55-7.35,20.75,5.8,1.25,11.01-1.07,16.23-1.97,64.37-10.49,130.12,12.05,181.53,50.46-.55,3.15-3.67,3.97-5.56,5.82-12.96,12.68-16.42,33.32-7.91,48.02,1.22,2.1,1.17,2.93-.83,4.23-1.78,1.16-3.87,2.63-4.61,4.45-2.5,6.2-6.17,5.3-11.22,3.24-8.69-3.54-17.66-4.6-26.23.74-1.28.8-2.15.18-3.22-.16-13.43-4.2-25.46-.17-36.87,6.62-6.02,3.59-11.12,8.39-15.32,14.02-1.38,1.86-2.12,1.62-3.79.21-11.81-9.94-24.88-12.61-39.3-6.18-1.14.51-2.11.69-3.31.35-17.59-5.02-32.16,1.61-44.87,13.35Z"/>
      <path class="cls-2" d="M116.94,407.84c3.01-.27,3.58,3.3,6.06,3.85.95.46,1.37,2.06,2.87,1.32,0,0-.16-.14-.16-.14.35,1.76,1.51,2.31,3.17,2.11,0,0-.16-.18-.16-.18-.32,1.17.63.89,1.2,1.05,0,0-.1-.06-.1-.06.37,1.01,1.24,1.02,2.11,1.06,0,0-.1-.06-.1-.06,6.72,3.73,13.45,4.59,20.17,0,0,0-.11.08-.11.08,1.24-.39,2.37-.95,3.13-2.08,0,0-.09.11-.09.11.69-.7,1.37-1.41,2.06-2.11,0,0-.11.06-.11.06,1.33-.94,2.66-.61,3.99.01,0,0-.06-.06-.06-.06.54.68.68,2.05,2.09,1.19,0,0-.2-.2-.2-.2-.32,1.1.08,1.47,1.16,1.16,0,0-.16-.16-.16-.16-.32,1.11.12,1.44,1.17,1.15,0,0-.16-.16-.16-.16-.29,1.07.09,1.46,1.16,1.16,0,0-.16-.16-.16-.16-.28,1.05.02,1.52,1.15,1.17,0,0-.16-.17-.16-.17-.32,1.1.06,1.5,1.17,1.17,0,0-.2-.15-.2-.15.26,2.63,2.72,3.46,4.19,5.09,0,0-.1-.1-.1-.1.58.63.82,1.88,2.14,1.18,0,0-.23-.23-.23-.23-.1.13-.3.29-.27.38.07.25.24.46.37.69,4.72,5.76,10.88,9.59,17.35,13.02,1.31.7,3.45.73,2.54,3.33-3.79,10.85-6.09,21.99-5.79,34.1-9.35-7.45-14.28-17.47-21.09-26.78-8.3,18.93-17.16,36.96-28.94,53.89-1.21,1.31-2.6,2.49-3.04,4.33,0,0,.1-.07.1-.07-.71.03-1,.47-1.09,1.11,0,0,.07-.1.07-.1-1.46.92-2.39,2.3-3.23,3.75-5.44,4.85-9.95,10.86-16.9,13.86-.64.49-1.28.97-1.92,1.46,0,0,.1-.07.1-.07-.83.09-1.71.09-2.1,1.06,0,0,.09-.06.09-.06-.83.09-1.74.02-2.1,1.05,0,0,.09-.06.09-.06-10,3.54-19.99,3.73-29.99,0,0,0,.09.07.09.07-.32-1.04-1.12-.95-1.93-.83-3-1.22-5.67-2.93-7.83-5.37-.45-.28-.9-.57-1.35-.86,0,0,.12.06.12.06-.69-.72-1.38-1.45-2.06-2.17-.28-.27-.56-.53-.85-.8-.39-.4-.79-.8-1.18-1.2-.59-.63-1.18-1.27-1.77-1.9-.36-.32-.72-.64-1.08-.96-4.17-5.05-7.66-10.57-11.16-16.09-11.08-20.83-16.08-43.47-19.72-66.55,2.2-.17,2.35,3.16,4.66,2.87,0,0-.04-.14-.04-.14,1.33,1.83,2.95,3.28,5.1,4.08,0,0-.08-.06-.08-.06.67,1.23,1.88,1.65,3.09,2.06,0,0-.09-.07-.09-.07,1.18,1.96,3.01,2.4,5.11,2.19,0,0-.2-.1-.2-.1,6.19,5.72,26.19,6.46,34.32,1.03,0,0-.13.1-.13.1,3.63-.1,6.44-1.94,9.07-4.19,0,0-.11.05-.1.05.62-.11,1.52.11,1.2-1.06,0,0-.18.18-.18.18,1.29.63,1.58-.47,2.09-1.2,0,0-.11.08-.11.08,1.82-.41,3.15-1.49,4.1-3.06,0,0-.11.06-.11.06.65-.09,1.06-.41,1.11-1.1,0,0-.11.11-.11.11.68-.06,1.12-.35,1.12-1.1,0,0-.11.11-.11.11.74,0,1.12-.36,1.11-1.11,0,0-.11.11-.11.11.75,0,1.09-.38,1.1-1.11,0,0-.1.11-.1.11.73,0,1.08-.39,1.1-1.11,0,0-.1.11-.1.11.72-.02,1.06-.41,1.1-1.1,0,0-.12.1-.12.1.42-.33.84-.65,1.26-.98.27-.31.54-.62.8-.94.95-.88,1.87-1.78,2.06-3.15.97-.27,1.91-1.74,2.01-3,0,0-.06.07-.06.07,1.31-.62,1.76-1.8,2.04-3.1,0,0-.05.08-.05.08,1.6-1.35,2.44-3.15,3.05-5.09,0,0-.07.09-.07.09.96-.39,1.06-1.22,1.08-2.1,0,0-.06.11-.06.11,1.08-.34,1.02-1.25,1.05-2.11,0,0-.07.1-.07.1.99-.35.85-1.27,1.02-2.02Z"/>
      <path class="cls-6" d="M312.7,741.69c5.24-6.73,8.72-14.28,11.31-22.43,2.54-8.02,1.19-16.43,3.07-24.58,18.77,7.67,35.6,4.78,50.75-8.08,1.41-1.2,2.24-.72,3.43.09,26.41,18.11,61.09,6.59,74.7-17.54,1.06-1.88,1.82-2.8,4.03-1.08,3.17,2.47,7.07,3.99,10.97,4.34,3.33.3,4.23,1.37,3.9,4.43-.63,5.74,1.28,11.12,2.66,16.55-34.62,26.93-76.23,46.19-120.07,50.82-8.89.82-17.94-.21-26.93-.41-4.44-.1-8.85,1.2-13.36-.15-1.62-.49-3.1-.99-4.45-1.96Z"/>
      <path class="cls-2" d="M117.91,150.32c-6.99,24.54-11.89,49.59-18.24,74.29-3.91-2.47-7.36-5.45-11.95-6.22-3.42-1.3-7.06-1.45-11.07-1.86,11.2-23.96,24.92-45.9,41.26-66.22Z"/>
      <path class="cls-6" d="M599.85,134.86c.08-.63.17-1.26.25-1.89.14.06.38.1.4.2.19.72-.08,1.27-.72,1.64,0,0,.06.05.06.05Z"/>
      <path class="cls-6" d="M3.89,367.75c-.09.61-.18,1.23-.27,1.84-.14-.07-.37-.11-.39-.21-.19-.71.06-1.25.72-1.58,0,0-.06-.05-.06-.05Z"/>
      <path class="cls-6" d="M4.94,296.8c-1.17-1-.92-2.01,0-3.01,0,0-.04-.03-.04-.03,0,1.03,0,2.06,0,3.09l.04-.04Z"/>
      <path class="cls-6" d="M674.84,238.85c.07-.31.14-.62.2-.93.71.54-.11.61-.27.88,0,0,.06.05.06.05Z"/>
      <polygon class="cls-6" points="672.82 230.84 673.02 230.6 672.77 230.79 672.82 230.84"/>
      <path class="cls-6" d="M48.95,224.79c-.11-.05-.22-.11-.32-.16.09.07.18.15.26.22,0,0,.06-.06.06-.06Z"/>
      <polygon class="cls-6" points="653.83 176.85 654.07 176.57 653.77 176.79 653.83 176.85"/>
      <path class="cls-6" d="M59.89,539.72c-.05.11-.1.22-.15.33.07-.09.14-.18.21-.27,0,0-.06-.06-.06-.06Z"/>
      <path class="cls-6" d="M671.78,310.81c.11.05.22.09.33.14-.1-.06-.19-.12-.29-.18,0,0-.04.04-.04.04Z"/>
      <path class="cls-6" d="M70.89,562.71l-.16.33c.07-.09.14-.18.22-.27,0,0-.06-.06-.06-.06Z"/>
      <polygon class="cls-6" points="82.89 583.71 82.67 583.96 82.94 583.76 82.89 583.71"/>
      <polygon class="cls-6" points="90.89 595.71 90.65 595.97 90.94 595.76 90.89 595.71"/>
      <polygon class="cls-6" points="581.84 100.87 582.02 100.59 581.78 100.81 581.84 100.87"/>
      <polygon class="cls-6" points="7.96 284.77 7.67 284.54 7.9 284.83 7.96 284.77"/>
      <path class="cls-3" d="M363.8,603.59c-3.25,6.02-7.36,11.2-12.13,15.92-3.81,3.77-7.91,7.01-12.9,9.16-13.92,5.98-24.29-5.01-25.97-15.47-2.67-16.6.73-32.38,5.8-47.88,7.49-22.93,15.43-45.71,23.4-68.47,1.41-4.04.45-4.81-3.45-4.53-9.77.7-19,2.72-26.93,8.95-1.68,1.32-3.59,2.45-5.56,3.27-6.05,2.51-13.21.51-15.55-4.82-3.15-7.19-2.71-11.13,4.52-16.01,14.37-9.31,34.19-11.66,50.88-8.94,3.65.65,5.97.09,7.08-4.22,1.97-7.67,4.62-15.18,7.08-22.72,1.42-4.39,4.39-6.93,9.16-7,11.52-.79,20.27,5.77,17.16,17.81-1.14,4.81-2.94,9.47-4.5,14.18-.66,1.98-.56,3.01,2.03,2.96,11.88-.23,23.55-.53,33.15-9.36,4.49-4.14,11.82.71,12.74,8.04,1.42,11.37-7.06,20.37-19.86,20.15-10.97-.19-21.93-1.25-32.88-2.07-1.89-.14-2.87-.01-3.62,2.07-12.05,33.24-24.72,66.26-35.19,100.05-1.13,3.65-1.82,7.4-1.55,11.28.29,4.17,1.8,5.02,5.35,2.71,2.52-1.64,4.64-3.8,6.37-6.28,7.05-10.14,12.6-20.91,15.55-33.07,3.02-12.49,7.42-24.67,15.07-35.08,8.86-12.07,18.75-23.5,34.11-27.49,17.32-4.49,29.94,3.69,33.56,21.06,3.92,18.79-.68,36.48-8.72,53.48-.41.87-.72,1.8-1.04,2.71-.03.09.15.26.44.7,19.79-5.19,28.06-27,33.35-44.69.55-1.76-.37-2.55-1.81-3.52-13.93-9.4-13.1-23.18-7.29-35.69,2.55-5.49,13.18-8.28,19.43-5.89,6.37,2.43,10.02,9.23,8.52,16.6-.88,4.34-2.34,8.56-3.7,13.43,8.27-1.2,16.04-3.09,23.11-7.55,4.45-2.8,8.81-5.9,14.76-3.63,8.07,3.08,11.95,10.26,9.39,18.69-3.1,10.23-9.25,18.99-14.04,28.41-8.13,15.98-15.54,32.2-18.78,49.99-.55,3.01-1.96,6.87,1.26,8.7,3.48,1.98,6.17-1.24,8.54-3.5,7.5-7.13,12.85-15.73,15.63-25.63,3.43-12.22,8.47-23.49,15.14-34.36,8.82-14.38,21.73-23.05,37.02-27.99,23.2-7.5,43.28,11.2,38.69,35.68-3.51,18.74-14.93,32.17-31.17,41.34-9.48,5.35-22.45,5.42-32.33,1.52-1.13,6.95-.11,13.59,2.92,19.79,8.08,16.46,31.04,8.99,42.56-.67,10.02-8.12,19.13-17.01,24.33-29.16.59-1.37,1.26-2.71,2.05-3.97,1.35-2.15,3.42-2.42,5.7-1.87,2.28.55,3.36,2.01,3.16,4.36-.14,1.62.13,3.25-.65,4.84-7.99,16.26-18,30.81-33.18,41.38-11.36,7.92-23.63,12.15-37.59,11.63-16.12-.6-35.22-13.78-35.83-37.22-3.62,3.05-5.28,7.26-8.42,10.29-5.78,5.59-11.38,11.27-19.74,12.7-16.2,2.76-23.09-4.76-24.45-19.33-2.58-27.13,13.4-58.44,26.94-81.77-6.35,1.08-11.81,2.44-17.46,2.12-2.34-.13-2.14,2.09-2.63,3.56-6.89,22.63-16.67,52.32-44.16,54.62-6.27.54-7.89,3.67-10.33,7.66-4.76,7.77-10.73,14.34-19.01,18.54-18.36,9.32-38.47-.14-43.47-20.51ZM560.63,593.8c9.62-.06,17.14-7.51,23.25-14.27,7.4-8.35,12.15-17.55,13.51-28.56,1.42-7.86-5.69-11.41-10.88-5.45-3.29,3.64-7.32,6.36-10.53,10.23-8.25,9.92-14.95,20.56-19.29,32.69-1.67,4.68-1.18,5.35,3.94,5.37ZM398.49,555.74c-8.2,14.92-13.15,29.54-11.52,45.73.37,3.65,2.35,7.19,6.36,8.15,8.77,2.07,12.07-5.78,16.63-11.45,2.49-2.97,2.09-5.28-.57-8.03-5.41-5.6-8.61-12.3-9.83-20.14-.68-4.38-.26-8.79-1.08-14.26ZM420.47,578.32c5.73-14.69,10.82-29.46,10.44-45.44-.06-2.65,1.26-6.64-2.23-7.31-2.57-.49-4.6,2.9-5.94,5.27-8.63,15.36-9.62,31.2-2.27,47.48Z"/>
      <path class="cls-3" d="M235.96,690.79c-44.75,1.32-79.65-33.98-75.3-77.78.76-12.68,5.1-24.31,12.21-33.98,7.06-9.61,15.67-18.9,29-21.02,7.82-1.25,19.24,5.43,21.09,12.98.61,2.47.54,4.75-2.05,5.66-9.79,3.45-15.6,11.22-20.49,19.51-9.55,16.22-12.43,33.65-5.29,51.48,9.02,22.53,37.18,30.2,58.02,12.28,13.94-11.99,17.82-28.05,16.27-45.97-1.7-19.66-11.7-35.95-20.47-52.76-10.8-20.68-23.31-40.47-32.32-62.08-5.53-13.27-9.11-26.94-8.68-41.5,1.41-44.84,54.05-67.6,88.16-38.98,8.75,7.4,14.07,16.15,14.58,27.35.53,11.48-7.25,20.31-18.57,22.42-4.94.92-10.93-1.88-13.14-6.14-2.29-4.42-1.69-8.88,2.58-12.47,4.8-4.03,5.89-9.04,3.95-14.33-2.16-5.89-7.16-8.98-13.41-9.71-17.72-2.07-27.8,10.49-30.32,26.63-1.76,11.3,1.18,21.6,5.76,31.73,8.85,19.57,19.57,38.17,29.49,57.18,18.19,34.71,39.07,78.02,17.53,115.87-5.4,9.21-12.02,18.13-21.37,23.01-12.25,6.39-25.33,11.86-37.23,10.64Z"/>
      <path class="cls-2" d="M278.81,393.58c-.24-2.86-2.79-1.84-4.23-2.26-4.92-1.41-4.96-1.26-5.42-7,5.81,2.93,11.44,5.73,17.01,8.63,1.08.56.5,1.76.49,2.71-2.62-.69-5.23-1.39-7.85-2.08Z"/>
      <path class="cls-5" d="M375.79,340.44c9.6.33,19.27-.04,28.73,2.28,1.22.3,2.47.24,3.71-.76,9.22-7.4,20.17-10.47,31.6-12.11,1.69-.24,2.64-.69,3.24-2.4,3.6-10.22,7.33-20.4,10.65-30.79-2.79,3.98-6.21,7.28-9.7,10.46-6.79,6.17-14.46,10.69-23.89,7.09-9.86-3.76-13.68-12.29-14.21-22.12-1.91-35.25,9.31-66.49,29.89-94.66,5.71-7.82,12.5-14.57,21.32-19.05,10.04-5.1,21.35-3.99,27.66,2.84,1.82,1.97,2.79,4.41,4.24,7.68,1.63-4.26,2.5-7.6,1.24-11.16-.95-2.67.22-3.71,2.73-3.92,5.26-.44,10.31.45,14.87,3.07,4.15,2.39,5.87,5.6,4.22,10.82-15.42,47.02-28.12,94.49-43.22,141.69,11.26,1.77,22.59,2.29,33.2,6.23,3.32,1.73,8.2,2.01,7.7,7.51-.4,4.32-6.59,9.41-11.43,9.61-6.17.26-11.54-2.65-17.18-4.46-5.05-1.61-10.41-4.42-15.33-3.25-5.18,1.24-5.31,7.97-7.65,12.24-7.17,13.03-15.37,24.85-29.77,30.86-11.65,4.86-22.3,2.77-29.01-6.34-6.21-8.52-3.66-18.62-.22-27.68-8.25-1.18-16.15-1.6-24.13-1.06-2.89.2-4.23,1.38-5.22,4.08-4.52,12.36-10.48,24-19.21,33.94-8.11,9.24-17.76,15.85-30.79,15.73-15.43-.14-24.04-12.81-19.19-28.4,5.75-18.25,25.85-30,43.68-33.49,1.68-.31,2.77-.72,3.31-2.32,3.08-9.06,6.16-18.12,9.21-27.2.13-.38-.13-.88-.27-1.72-12.55,17.82-35.12,25.63-44.4.67-.16-.45-.45-.85-1.09-2.03-3.64,12.01-11.94,26.26-24.55,29.36-12.81,2.75-19.2-5.92-21.16-17.74-3.28,6.17-6.26,12.05-10.58,17.1-17.02,19.8-40.37,8.03-41.65-14.72-3.14-36.49,5.98-69.97,27.15-99.82,6.24-8.8,14.33-16.3,25.99-17.81,12.04-1.56,20.07,2.84,25.37,13.84,2.16-3.61,1.31-7.51,1.17-11.23-.13-3.33,1.22-4.57,4.3-4.51,2.82.06,5.59-.02,8.39.83,8.66,2.62,10.28,5.5,7.7,14.03-7.71,25.44-15.49,50.86-20.81,76.94-1.17,5.71-1.81,11.48-1.51,17.33.18,4.98,4.05,6.44,6.92,2.09,8.7-11.75,12.27-25.16,14.26-39.53,4.02-29.05,13.34-56.03,34.94-77.24,5.42-5.32,12-9.09,19.5-10.33,12.17-2.01,18.1,1.36,25.05,13.56.58-4.33,1.19-8.14.41-12.01-.54-2.73.31-4.03,3.22-4,4.5.04,8.91.12,13.15,2.09,5.34,2.49,6.55,4.47,5.02,10.08-12.89,46.44-25.31,93.34-37.53,139.78ZM473.04,205.05c2.28.06,4.35,2.26,6.18-.15,1.64-2.15-.05-9.15-2.69-12-2.81-3.03-5.52-2.05-8.3-.02-21.28,16.59-38.31,63.72-36.38,90.36.62,7.67,5.68,10.11,11.98,5.7,3.89-2.72,6.67-6.5,8.9-10.57,12.49-22.73,21.21-46.53,20.3-73.33ZM336.82,292.41c.38,5.32-1.47,12.91,4.9,14.93,5.75,1.74,9.35-3.45,11.97-7.87,13.39-22.64,19.89-47.31,21.13-73.49.12-2.6-1.9-7.3,4.25-5.4.4.12,1.45-.49,1.52-.89.74-4.04.64-8.01-2.38-11.21-2.88-3.06-5.61-1.48-8.38.46-1.94,1.36-3.57,2.98-5,4.82-17.95,23.15-26.02,49.82-28.01,78.65ZM239.65,308.57c.13,5.02-.12,10.04,2.12,14.69,2.45,5.1,5.64,5.82,9.84,2.29,2.59-2.18,4.53-4.92,5.95-7.91,11.21-23.66,17.09-48.57,17.02-74.8,0-2.8-.87-6.33,4-3.55.73.42,1.39.75,2.2-.03,1.81-1.75,1.22-8.84-1.2-11.82-5.21-6.34-12.76,3.52-15.89,7.67-15.78,21.96-22.33,46.93-24.03,73.46ZM436.21,344.64c-11.83,1.43-21.54,5.47-28.2,15.12-2.45,3.55-3.21,7.6-2.27,11.81.99,4.48,4.36,6.15,8.6,4.53,11.26-5.47,16.64-20.32,21.87-31.46ZM341.03,359.65c-8.46,2.13-15.63,5.08-21.52,10.33-5.12,4.57-9.71,9.78-9.59,17.26.09,5.59,4.15,7.85,9.29,5.66,11.36-7.1,16.34-21.04,21.82-33.25Z"/>
      <path class="cls-5" d="M152.16,371.71c-6.88-4.71-8.31-6.52-12.78-16.15-1.73,2.95-1.64,6.28-2.43,9.35-.74,2.9-2.48,3.23-4.86,2.68-6.82-1.6-11.3-7.63-10.05-14.44,10.38-56.88,11.67-114.89,20.81-171.92.18-.94.02-1.95-.73-3.05-12.35,45.87-18.95,93.01-32.15,138.66-5.38,17.61-11.98,34.71-23.41,49.33-15.43,21.56-43.25,26.95-59.43,2.81-6.61-9.4-9.38-20.2-9.98-31.34-1.77-32.67,5.55-62.94,26.08-89.06,7.37-9.38,16.24-17.25,29.2-17.88,25.22-1.51,27.14,28.39,23.22,46.75-1.8,10.21-4.5,20.27-9.76,29.4-2.45,4.18-6.04,10.09-11.65,7.72-3.68-1.5-6.06-4.57-7.25-8.42-.46-1.48.6-2.47,1.39-3.53,8.71-11.72,12.88-25.21,15.34-39.36.6-3.48.21-6.97-.85-10.35-1.61-5.17-5.33-6.73-9.95-3.8-6.54,4.15-10.43,10.8-13.7,17.35-11.22,21.51-20.67,62.55-9.03,84.95,4.98,8.95,13.46,10.32,21.12,3.54,21.5-20.56,29.26-59.16,35.63-87.38,9.16-42.82,17.47-85.85,29.97-127.89,1.88-6.32,3.95-12.6,6.17-18.8,1.8-5.03,5.28-8.53,10.84-9,7.6-.63,15.16-.37,20.47,6.27,2.2,2.75,2.08,6.35,1.14,9.6-7.04,24.23-11.32,49.02-14.33,73.99-2.6,21.54-4.87,43.17-3.49,65.1,15.38-51.19,36.36-100.24,65.52-145.14,1.87-2.92,4.11-5.65,6.41-8.26,8.16-9.23,20-6.48,26.89,2.45,2.89,3.74,1.74,7.84-.35,11.7-25.22,46.35-41.92,96.81-52.34,148.44-4.97,24.8-8.76,49.73-7.92,75.13.31,14.52,4.98,33.72,23.04,33.8-9.91,16.71-32.62,19.45-42.99,2-16.24-25.1-2.65-89.07,4.28-117.58,6.9-28.19,14.56-56.21,25.37-83.24.09-.23-.14-.6-.59-2.25-30.61,59.66-56.59,119.39-52.87,187.83Z"/>
      <path class="cls-5" d="M578.08,247.28c-.62,7.83-.23,14.85,2.83,21.43,3.57,7.66,9.76,10.54,18.01,8.74,14.66-3.19,24.8-12.93,34.02-23.81,7.11-8.39,12.59-17.79,15.98-28.34.51-1.59,1.35-3.51,3.24-3.25,4.06.71,2.67,10.34,1.68,13.23-8.26,25.86-23.3,45.88-48.93,56.68-8.64,3.64-17.79,4.17-26.89,2.32-13.76-2.8-20.87-12.42-24.8-26.18-7.09,15.03-17.36,30.71-34.42,34.37-9.67,1.93-18.36-4.7-19-14.61-.68-10.62,1.92-20.76,4.49-30.87,6.27-24.68,15.18-48.51,24-72.35,1.44-3.89,3.08-7.76,2.52-12.04-.29-2.23.93-2.89,2.72-3.25,7.13-1.42,13.94-.61,19.92,3.68,4.84,3.47,5.44,7.09,2.66,13.06-11.97,25.65-21.56,52.12-27.77,79.77-.89,4.04-4.79,20.36,3.97,15.25,4.02-2.32,6.36-6.21,8.92-9.9,7.74-11.16,10.22-23.93,12.85-37.03,5.15-25.68,17.5-47.54,39.68-62.62,9.24-6.28,19.48-9.17,30.61-4.82,10.01,3.91,14.46,12.11,15.3,22.02,2.31,27.05-16.51,53.84-42.41,61.32-6.65,1.92-12.98,1.91-19.19-2.81ZM579.72,238.35c19.64-3.8,33.12-21.6,39.08-39.57,1.6-4.73,2.92-9.51,2.18-14.58-.94-7.16-8.61-4.86-12.17-1.08-15.55,14.51-24.72,34.56-29.09,55.23Z"/>
      <path class="cls-5" d="M560.05,106.82c10.91-.02,19.79,8.68,20.96,20.23,1.46,14.42-8.13,27.14-21.7,29.28-8.82,1.39-19.81-6.57-21.92-14.22-4.89-16.67,5.56-34.11,22.66-35.28Z"/>
      <path class="cls-1" d="M81.06,444.91c-8.13,5.43-28.13,4.69-34.32-1.03,11.33,4.1,22.78,3.94,34.32,1.03Z"/>
      <path class="cls-1" d="M289.73,195.69c10.52-4.2,20.16-2.15,29.22,4.09-3.3.03-5.74-2.29-8.75-3.15-6.78-1.93-13.58-2.02-20.47-.94Z"/>
      <path class="cls-1" d="M77.91,529.65c10,3.74,19.99,3.54,29.99,0-5.13,5.38-25.02,5.44-29.99,0Z"/>
      <path class="cls-1" d="M151.99,416.79c-6.72,4.59-13.44,3.73-20.17,0,6.72,1.56,13.45,2.34,20.17,0Z"/>
      <path class="cls-1" d="M248.88,95.99c4.44-.1,7.88,2.1,11.09,4.83-3.89-1.16-7.57-2.79-11.09-4.83Z"/>
      <path class="cls-1" d="M276.91,121.74c2.32,2.95,2.84,6.59,3.82,10.06-2.9-2.73-3.35-6.4-3.82-10.06Z"/>
      <path class="cls-1" d="M90,440.81c-2.63,2.25-5.44,4.1-9.07,4.19,2.73-2.03,5.61-3.74,9.07-4.19Z"/>
      <path class="cls-1" d="M263.88,103.74c1.91.75,3.29,2.04,4.08,3.94-2.27-.37-3.41-1.92-4.08-3.94Z"/>
      <path class="cls-1" d="M38.91,439.86c-2.15-.8-3.78-2.25-5.1-4.08,2.43.44,3.87,2.13,5.1,4.08Z"/>
      <path class="cls-1" d="M171.86,423.9c-1.47-1.63-3.93-2.46-4.19-5.09,1.96,1.24,3.85,2.53,4.19,5.09Z"/>
      <path class="cls-1" d="M113.99,413.77c-.61,1.94-1.45,3.74-3.05,5.09-.07-2.34,1.09-3.96,3.05-5.09Z"/>
      <path class="cls-1" d="M160.87,412.86c-1.33-.62-2.66-.95-3.99-.01,1.33-1.73,2.67-2.95,3.99.01Z"/>
      <path class="cls-1" d="M46.94,443.98c-2.11.21-3.94-.23-5.11-2.19,2.01.02,3.69.8,5.11,2.19Z"/>
      <path class="cls-1" d="M134.8,507.73c.44-1.85,1.83-3.03,3.04-4.33-.19,2.02-.79,3.75-3.04,4.33Z"/>
      <path class="cls-4" d="M200.88,529.77c-.6-1.04-1.19-2.08-1.99-3.47,2.79.53,2.42,2,1.91,3.53,0,0,.08-.05.08-.05Z"/>
      <path class="cls-1" d="M96.99,435.8c-.96,1.57-2.28,2.65-4.1,3.06.91-1.63,2.13-2.85,4.1-3.06Z"/>
      <path class="cls-1" d="M130.65,512.42c.84-1.45,1.77-2.83,3.23-3.75-.34,1.89-1.2,3.32-3.23,3.75Z"/>
      <path class="cls-1" d="M678.75,260.75v4.4c-.93-1.51-.97-2.97.05-4.35,0,0-.05-.04-.05-.04Z"/>
      <path class="cls-1" d="M319.85,200.72c1.56.5,2.77,1.34,3.11,3.07-1.45-.61-2.47-1.65-3.11-3.07Z"/>
      <path class="cls-1" d="M107.01,424.8c-.19,1.37-1.11,2.27-2.06,3.15,0-1.5.36-2.76,2.06-3.15Z"/>
      <path class="cls-1" d="M109.02,421.8c-.19,1.36-.8,2.43-2.06,3.07-.09-1.55.41-2.69,2.06-3.07Z"/>
      <path class="cls-1" d="M128.88,414.98c-1.66.2-2.81-.35-3.17-2.11,1.38.21,2.48.85,3.17,2.11Z"/>
      <path class="cls-1" d="M259.86,100.74c1.3.28,2.51.7,3.1,2.06-1.44-.07-2.49-.74-3.1-2.06Z"/>
      <path class="cls-1" d="M155.01,414.79c-.76,1.12-1.89,1.68-3.13,2.08.57-1.41,1.7-1.96,3.13-2.08Z"/>
      <path class="cls-1" d="M41.92,441.86c-1.21-.41-2.42-.83-3.09-2.06,1.45.05,2.51.7,3.09,2.06Z"/>
      <path class="cls-1" d="M677.76,252.76c-.05.84-.1,1.68-.18,2.93-.85-1.4-.37-2.16.24-2.89,0,0-.05-.04-.05-.04Z"/>
      <path class="cls-1" d="M125.87,413.01c-1.5.74-1.92-.86-2.87-1.32,1.59-.93,2.18.3,2.87,1.32Z"/>
      <path class="cls-1" d="M110.99,418.78c-.28,1.3-.73,2.48-2.04,3.1-.05-1.51.67-2.52,2.04-3.1Z"/>
      <path class="cls-1" d="M323.83,204.74c.69,0,1.37,0,2.06,0-.69,1.21-1.37,1.15-2.06,0Z"/>
      <path class="cls-1" d="M272.18,113.65c1.37.11,1.57,1.15,1.79,2.2-.6-.73-1.19-1.47-1.79-2.2Z"/>
      <path class="cls-1" d="M602.77,150.86c.48.05.97.1,1.45.15-.06.16-.11.32-.17.48-.41-.23-.83-.46-1.24-.69,0,0-.05.06-.05.06Z"/>
      <path class="cls-1" d="M621.8,150.81c-.42.23-.83.46-1.25.68-.07-.18-.14-.35-.21-.53.49-.04.98-.09,1.48-.13,0,0-.02-.03-.02-.03Z"/>
      <path class="cls-1" d="M333.71,195.68c.69-.7,1.39-1.4,2.08-2.09-.05,1.34-.74,2.04-2.08,2.09Z"/>
      <path class="cls-1" d="M286.78,196.77c.82-.99,1.63-1.97,3.12-1.17-.83.95-1.93,1.17-3.12,1.17Z"/>
      <path class="cls-1" d="M327.93,201.77c.56-.52.66-1.77,1.91-1.18-.47.67-.59,1.9-1.91,1.18Z"/>
      <path class="cls-1" d="M4.9,296.84c0-1.03,0-2.06,0-3.09,1.1,1.03.81,2.06,0,3.09Z"/>
      <path class="cls-1" d="M156.99,412.79c-.69.7-1.37,1.41-2.06,2.11.05-1.33.84-1.93,2.06-2.11Z"/>
      <path class="cls-1" d="M64.95,520.55c.69.72,1.38,1.45,2.06,2.17-1.36-.08-2.07-.78-2.06-2.17Z"/>
      <path class="cls-1" d="M116.94,407.84c-.17.76-.03,1.68-1.02,2.02.34-.67.68-1.35,1.02-2.02Z"/>
      <path class="cls-1" d="M115.99,409.76c-.03.86.03,1.77-1.05,2.11.03-.86.22-1.64,1.05-2.11Z"/>
      <path class="cls-1" d="M621.84,353.76l-.86-.23c.5-.61.56.14.82.27,0,0,.03-.04.03-.04Z"/>
      <path class="cls-1" d="M162.9,414c-1.41.85-1.56-.51-2.09-1.19.7.4,1.4.8,2.09,1.19Z"/>
      <path class="cls-1" d="M131.92,416.86c-.86-.04-1.73-.05-2.11-1.06.7.35,1.4.71,2.11,1.06Z"/>
      <path class="cls-1" d="M336.67,192.77c.38-.33.75-.67,1.13-1,.29,1.09-.64.8-1.13,1Z"/>
      <path class="cls-1" d="M173.9,424.99c-1.32.7-1.55-.56-2.14-1.18.92.02,1.62.44,2.14,1.18Z"/>
      <path class="cls-1" d="M274.92,117.73c1.07.34,1.07,1.22,1.07,2.1-.83-.46-1.01-1.25-1.07-2.1Z"/>
      <path class="cls-1" d="M329.67,200.83c-.66-1.28.56-1.6,1.15-2.24.01.95-.4,1.68-1.15,2.24Z"/>
      <path class="cls-1" d="M115,411.76c-.01.88-.12,1.71-1.08,2.1.1-.83.26-1.64,1.08-2.1Z"/>
      <path class="cls-4" d="M198.39,523.43c.12,0,.3-.02.35.04.36.44-.28,1.23-.46.38-.03-.12.07-.28.12-.42Z"/>
      <path class="cls-1" d="M656.77,184.78c-.07.3-.13.6-.2.9-.68-.51.11-.59.25-.85,0,0-.05-.04-.05-.04Z"/>
      <path class="cls-1" d="M111.82,527.74c.64-.49,1.28-.97,1.92-1.46-.4.81-.97,1.39-1.92,1.46Z"/>
      <path class="cls-1" d="M109.82,528.72c.39-.97,1.27-.96,2.1-1.06-.45.85-1.27.95-2.1,1.06Z"/>
      <path class="cls-1" d="M76.07,528.89c.81-.12,1.61-.21,1.93.83-.64-.28-1.29-.55-1.93-.83Z"/>
      <path class="cls-1" d="M107.81,529.71c.36-1.04,1.27-.96,2.1-1.05-.41.93-1.27.96-2.1,1.05Z"/>
      <path class="cls-1" d="M275.92,119.72c1.08.34,1.03,1.24,1.05,2.11-.92-.42-1.02-1.25-1.05-2.11Z"/>
      <path class="cls-1" d="M273.88,115.73c.91.42,1.17,1.18,1.09,2.11-.36-.7-.73-1.41-1.09-2.11Z"/>
      <path class="cls-1" d="M93,438.78c-.51.73-.8,1.84-2.09,1.2.46-.82,1.18-1.17,2.09-1.2Z"/>
      <path class="cls-1" d="M173.77,425.83c-.13-.23-.3-.44-.37-.69-.03-.09.17-.25.27-.38.24.53.53.63.1,1.07Z"/>
      <path class="cls-1" d="M104.15,428.88c-.42.33-.84.65-1.26.98.42-.33.84-.65,1.26-.98Z"/>
      <path class="cls-1" d="M103,429.76c-.04.69-.38,1.09-1.1,1.1.37-.37.73-.74,1.1-1.1Z"/>
      <path class="cls-1" d="M102,430.76c-.02.72-.37,1.1-1.1,1.11.37-.37.73-.74,1.1-1.11Z"/>
      <path class="cls-1" d="M100,432.76c0,.75-.37,1.1-1.11,1.11.37-.37.74-.74,1.11-1.11Z"/>
      <path class="cls-1" d="M99,433.76c0,.75-.44,1.04-1.12,1.1.37-.37.74-.73,1.12-1.1Z"/>
      <path class="cls-1" d="M97.99,434.75c-.04.69-.46,1.01-1.11,1.1.37-.37.74-.73,1.11-1.1Z"/>
      <path class="cls-1" d="M325.8,204.85c.36-.53.73-1.07,1.09-1.6-.36.54-.73,1.07-1.09,1.6Z"/>
      <polygon class="cls-1" points="637.82 347.77 637.6 347.56 637.79 347.8 637.82 347.77"/>
      <path class="cls-1" d="M91.09,439.8c.33,1.17-.58.95-1.2,1.06.4-.35.8-.71,1.2-1.06Z"/>
      <path class="cls-1" d="M318.85,199.73c.36.37.73.74,1.09,1.11-.36-.37-.73-.74-1.09-1.11Z"/>
      <polygon class="cls-1" points="630.83 350.77 630.62 350.57 630.79 350.81 630.83 350.77"/>
      <path class="cls-1" d="M331.69,197.7c.37-.35.74-.7,1.11-1.05-.37.35-.74.7-1.11,1.05Z"/>
      <path class="cls-1" d="M286,196.96c.23-.3.53-.38.88-.25-.29.08-.59.17-.88.25Z"/>
      <path class="cls-1" d="M133.81,508.77c.09-.64.38-1.07,1.09-1.11-.36.37-.72.74-1.09,1.11Z"/>
      <path class="cls-1" d="M322.84,203.72c.74,0,1.02.47,1.1,1.12-.37-.37-.73-.75-1.1-1.12Z"/>
      <path class="cls-1" d="M60.07,515.68c.36.32.72.64,1.08.96-.36-.32-.72-.64-1.08-.96Z"/>
      <path class="cls-1" d="M62.92,518.54c.39.4.79.8,1.18,1.2-.39-.4-.79-.8-1.18-1.2Z"/>
      <path class="cls-1" d="M163.87,414.96c-1.08.31-1.49-.06-1.16-1.16.39.39.78.78,1.16,1.16Z"/>
      <path class="cls-1" d="M66.89,522.66c.45.29.9.57,1.35.86-.45-.29-.9-.57-1.35-.86Z"/>
      <path class="cls-1" d="M129.92,415.86c-.57-.16-1.52.12-1.2-1.05.4.35.8.7,1.2,1.05Z"/>
      <path class="cls-1" d="M164.88,415.95c-1.05.29-1.49-.05-1.17-1.15.39.38.78.77,1.17,1.15Z"/>
      <polygon class="cls-1" points="599.8 147.79 599.62 148 599.85 147.84 599.8 147.79"/>
      <path class="cls-1" d="M165.88,416.95c-1.08.3-1.45-.09-1.16-1.16.39.39.77.77,1.16,1.16Z"/>
      <path class="cls-1" d="M642.83,344.77c-.1-.05-.19-.1-.29-.16.08.07.16.14.24.2,0,0,.05-.05.05-.05Z"/>
      <path class="cls-1" d="M166.87,417.96c-1.13.34-1.43-.13-1.15-1.17.38.39.77.78,1.15,1.17Z"/>
      <path class="cls-1" d="M167.87,418.96c-1.11.33-1.48-.07-1.17-1.17.39.39.78.78,1.17,1.17Z"/>
      <path class="cls-1" d="M101,431.76c-.01.73-.36,1.12-1.1,1.11.37-.37.74-.74,1.1-1.11Z"/>
      <polygon class="cls-1" points="677.82 292.78 677.55 292.54 677.79 292.81 677.82 292.78"/>
      <path class="cls-1" d="M262.87,102.74c.36.37.72.74,1.08,1.12-.36-.37-.72-.74-1.08-1.12Z"/>
      <path class="cls-4" d="M560.63,593.8c-5.11-.02-5.61-.7-3.94-5.37,4.34-12.13,11.04-22.76,19.29-32.69,3.21-3.86,7.24-6.59,10.53-10.23,5.16-5.94,12.3-2.45,10.88,5.45-1.36,11.01-6.11,20.21-13.51,28.56-6.14,6.79-13.6,14.19-23.25,14.28Z"/>
      <path class="cls-4" d="M398.49,555.74c.81,5.48.39,9.89,1.08,14.26,1.22,7.84,4.42,14.54,9.83,20.14,2.65,2.75,3.06,5.06.57,8.03-4.57,5.68-7.84,13.51-16.63,11.45-4.01-.97-5.99-4.51-6.36-8.15-1.64-16.19,3.32-30.81,11.52-45.73Z"/>
      <path class="cls-4" d="M420.47,578.32c-7.35-16.27-6.36-32.11,2.27-47.48,1.33-2.38,3.37-5.76,5.94-5.27,3.49.67,2.16,4.66,2.23,7.31.38,15.99-4.7,30.76-10.44,45.44Z"/>
      <path class="cls-6" d="M473.04,205.05c.91,26.79-7.81,50.6-20.3,73.33-2.24,4.07-5.02,7.85-8.9,10.57-6.3,4.4-11.36,1.97-11.98-5.7-1.36-27.29,12.01-62.42,29.13-83.57,2.11-2.62,4.55-4.82,7.25-6.79,2.78-2.03,5.49-3.01,8.3.02,2.64,2.85,4.33,9.85,2.69,12-1.83,2.41-3.9.21-6.18.15Z"/>
      <path class="cls-6" d="M336.82,292.41c1.99-28.83,10.06-55.51,28.01-78.65,1.43-1.84,3.06-3.46,5-4.82,2.76-1.94,5.49-3.51,8.38-.46,3.02,3.2,3.11,7.17,2.38,11.21-.07.4-1.12,1.01-1.52.89-6.15-1.9-4.13,2.8-4.25,5.4-1.24,26.18-7.73,50.85-21.13,73.49-2.61,4.42-6.22,9.61-11.97,7.87-6.38-2.01-4.52-9.62-4.9-14.93Z"/>
      <path class="cls-6" d="M239.65,308.57c1.71-26.54,8.25-51.5,24.03-73.46,3.16-4.18,10.68-14,15.89-7.67,2.42,2.98,3.01,10.07,1.2,11.82-.8.78-1.47.44-2.2.03-4.87-2.79-4,.75-4,3.55.06,26.24-5.81,51.14-17.02,74.8-1.42,3-3.36,5.74-5.95,7.91-4.2,3.53-7.39,2.81-9.84-2.29-2.24-4.65-1.99-9.67-2.12-14.69Z"/>
      <path class="cls-6" d="M436.21,344.64c-5.22,11.13-10.61,26-21.87,31.46-4.25,1.62-7.61-.05-8.6-4.53-.93-4.22-.18-8.27,2.27-11.81,6.66-9.65,16.37-13.69,28.2-15.12Z"/>
      <path class="cls-6" d="M341.03,359.65c-5.5,12.25-10.43,26.12-21.82,33.26-5.14,2.18-9.2-.07-9.29-5.66-.11-7.48,4.47-12.69,9.59-17.26,5.88-5.26,13.06-8.2,21.52-10.33Z"/>
      <path class="cls-6" d="M579.72,238.35c4.37-20.67,13.54-40.73,29.09-55.24,3.56-3.77,11.24-6.08,12.17,1.08.74,5.06-.58,9.85-2.18,14.58-5.96,17.96-19.44,35.77-39.08,39.57Z"/>
    </g>
  </g>
</svg>