<?xml version="1.0" encoding="UTF-8"?>
<svg id="Capa_2" data-name="Capa 2" xmlns="http://www.w3.org/2000/svg" viewBox="0 0 638.72 734.93">
  <defs>
    <style>
      .cls-1 {
        fill: #3bb9e8;
      }

      .cls-1, .cls-2, .cls-3, .cls-4, .cls-5 {
        stroke-width: 0px;
      }

      .cls-2 {
        fill: #fb1f21;
      }

      .cls-3 {
        fill: #f83236;
      }

      .cls-4 {
        fill: #465161;
      }

      .cls-5 {
        fill: #fab927;
      }
    </style>
  </defs>
  <g id="Capa_1-2" data-name="Capa 1">
    <g>
      <path class="cls-2" d="M346.15,190.12c10.68-6.88,20.83-13.48,32.01-18.35,23.75-10.35,48.44-13.37,74.13-11.04,29.05,2.63,55.58,12.12,79,29.22,35.34,25.81,57.47,60.76,63.9,103.92,7.51,50.43-11.35,90.34-54.16,118.33-21.58,14.12-44.49,26.04-67,38.58-31.08,17.32-62.21,34.53-93.35,51.74-12.07,6.67-24.66,11.58-38.84,10.95-12.46-.55-23.63-4.97-34.39-10.86-38.93-21.31-77.81-42.69-116.83-63.83-42.53-23.05-85.2-45.84-127.78-68.79-5.42-2.92-10.71-6.07-15.54-9.95-2.35-1.89-4.41-4.03-6.18-6.48-4.96-6.87-5.52-14.43-1.47-19.93,3.81-5.17,10-6.22,18.65-3.01,8.75,3.24,16.88,7.79,25.05,12.25,72.52,39.57,145.04,79.14,217.57,118.7,7.88,4.3,15.78,8.55,23.66,12.84,14.85,8.07,29.43,7.57,44.09-.79,16.03-9.13,32.34-17.75,48.42-26.8,32.72-18.4,65.88-36.02,98.14-55.22,15.66-9.32,29.29-20.94,38.3-37.09,10.04-17.99,13.53-36.96,7.33-57.14-7.74-25.23-29.78-36.43-54.48-27.22-19.07,7.11-36.22,18.12-54.14,27.55-34.12,17.95-68.17,36.04-102.03,54.47-15.72,8.56-30.91,8.65-46.46.03-15.11-8.38-30.3-16.62-45.52-24.8-62.93-33.84-125.88-67.65-188.84-101.42-6-3.22-12.28-5.9-18.2-9.24-12.41-7.02-12.59-16-.33-23.06,18-10.36,36.2-20.37,54.3-30.57,23.9-13.46,47.69-27.11,71.68-40.4,23.93-13.25,49.74-16.3,76.41-12.32,34.96,5.21,61.55,23.68,81.07,52.77,5.42,8.08,8.6,17.2,11.82,26.96Z"/>
      <path class="cls-4" d="M432.75,702.65c0-8.66-.04-17.32.02-25.98.03-3.8-1.02-7.17-3.07-10.35-20.04-31.04-40.04-62.12-60.07-93.17-2.66-4.13-2.07-5.82,2.77-5.91,12.99-.25,25.98-.16,38.97-.25,2.73-.02,4.11,1.57,5.44,3.66,11.25,17.7,22.58,35.35,33.88,53.02.81,1.26,1.54,2.58,2.4,3.8,2.06,2.95,3.95,4.3,6.52.19,9.28-14.8,19.56-29.04,27.91-44.33,6.65-12.18,14.33-19.16,29.11-16.55,7.27,1.28,14.95.24,22.45.33,1.59.02,3.71-.64,4.54,1.14.75,1.6-.59,3.13-1.51,4.53-12.88,19.62-25.78,39.23-38.63,58.87-8.02,12.26-15.92,24.59-23.96,36.84-1.48,2.25-1.66,4.59-1.66,7.13.03,18.16-.1,36.31.06,54.47.03,3.73-1.09,4.93-4.81,4.87-11.99-.19-23.99-.16-35.98-.02-3.23.04-4.42-.98-4.36-4.28.17-9.32.06-18.65.06-27.98h-.09Z"/>
      <path class="cls-4" d="M148.31,566.98c22.66,0,45.32.1,67.98-.08,4.74-.04,6.65,1.49,6.52,6.29-.22,7.99-.23,16,.02,23.99.12,3.9-1.47,4.79-5.01,4.76-14.16-.14-28.33.13-42.49-.15-4.98-.1-6.6,1.35-6.57,6.48.2,39.82.12,79.65.12,119.47,0,7.09-.02,7.1-6.91,7.11-10.16.01-20.33.01-30.49,0-6.69-.01-6.7-.03-6.7-6.54,0-39.49,0-78.98,0-118.47q0-7.95-8.09-7.95c-12.33,0-24.66-.12-36.99.11-4.31.08-6.03-1.38-5.94-5.72.17-7.66.25-15.34-.12-22.99-.23-4.79,1.28-6.48,6.18-6.43,22.83.19,45.65.09,68.48.09,0,.02,0,.04,0,.06Z"/>
      <path class="cls-4" d="M252.69,650.92c0-25.82.11-51.65-.09-77.47-.04-4.99,1.38-6.72,6.52-6.55,10.98.37,21.99.26,32.98.06,4.34-.08,5.75,1.45,5.74,5.82-.12,40.49-.06,80.97-.03,121.46,0,6.56.05,6.62,6.58,6.61,24.16,0,48.32.09,72.47-.2,4.92-.06,6.33,1.41,6.11,6.18-.35,7.65-.21,15.33,0,22.99.1,3.5-.69,5.08-4.64,5.07-40.32-.1-80.64-.08-120.96.03-3.81.01-4.76-1.42-4.74-5.02.13-26.32.07-52.65.07-78.97Z"/>
      <path class="cls-3" d="M326.22,446.8c-5.77-.23-12.09-2.65-18.13-5.91-37.8-20.41-75.54-40.92-113.38-61.25-42.11-22.61-84.54-44.62-127.18-66.22-4.29-2.18-8.47-4.58-12.69-6.91-1.93-1.06-3.53-2.56-4.73-4.37-2.56-3.86-3.8-8.1-.62-12.03,2.94-3.64,7.13-4.13,11.35-2.25,12.59,5.64,24.35,12.86,36.49,19.36,59.12,31.66,118.35,63.12,177.07,95.52,14.23,7.85,28.05,16.52,43.19,22.66,4.14,1.68,8.43,3,12.69,4.38,6.61,2.14,9.01,4.77,8.34,9.34-.72,4.91-4.72,7.65-12.39,7.67Z"/>
      <path class="cls-3" d="M56.15,243.93c3.36-.19,6.04,1.22,8.66,2.62,61.63,33.07,123.25,66.14,184.85,99.26,19.61,10.54,39.12,21.27,58.73,31.8,6.46,3.47,13.32,5.94,20.46,7.71,4.1,1.02,8.11,2.56,8.9,7.55,1.05,6.58-4.37,11.4-11.72,10.42-7.2-.96-13.75-3.94-20.03-7.3-52.58-28.1-105.01-56.46-157.65-84.45-29.46-15.67-59.2-30.79-88.82-46.15-3.57-1.85-6.93-3.98-9.6-7.04-2.61-2.99-2.57-6.37-1.13-9.81,1.38-3.3,4.04-4.7,7.34-4.61Z"/>
      <path class="cls-3" d="M483.58,45.58c-.53,10.54-4.42,19.62-10.07,28.01-14.03,20.85-31.09,39.02-49.63,55.87-4.31,3.92-8.31,8.2-13.17,11.48-1.75,1.18-3.67,2.92-5.83,1.17-1.82-1.47-1.16-3.71-.58-5.61,3.93-12.87,9.39-25.16,14.47-37.58,8.41-20.57,16.55-41.29,28.35-60.27,1.85-2.97,3.92-5.76,6.44-8.24,9.13-9,22.19-6.79,27.57,4.79,1.56,3.35,2.18,6.96,2.44,10.38Z"/>
      <path class="cls-2" d="M404.53,345.3v88.18c-6.56-3.37-12.75-6.44-18.84-9.7-2.58-1.38-4.18-1.31-6.28,1.2-6.09,7.27-12.57,14.2-18.94,21.23-.97,1.07-1.83,2.86-3.5,2.41-1.97-.52-1.11-2.54-1.12-3.87-.07-23.15-.04-46.3-.1-69.45,0-2.15.29-3.95,2.35-5.05,15.18-8.16,30.36-16.31,46.43-24.95Z"/>
      <path class="cls-5" d="M356.45,50.8c6.82,0,13.65.1,20.47-.05,3.07-.07,3.99,1.08,3.86,4.1-.88,21.11-1.62,42.22-2.4,63.33-.23,6.32-.47,12.64-.71,18.95-.09,2.4-.37,4.91-3.01,5.74-3.05.97-4.02-1.74-5.07-3.71-9.69-18.08-17.44-37.06-25.73-55.79-3.88-8.76-7.65-17.57-11.35-26.41-2-4.78-1.22-5.98,3.96-6.09,6.66-.13,13.32-.03,19.97-.03v-.06Z"/>
      <path class="cls-1" d="M71.94,47.93c4.44.08,10.32,2.68,15.24,7.19,16.29,14.94,28.07,33.21,38.2,52.63,1.11,2.12,2.4,4.64.23,6.98-1.91,2.06-4.38,2.31-6.92,1.56-22.85-6.7-42.77-18.16-58.21-36.58-3.72-4.44-6.76-9.48-6.78-15.74-.03-9.59,6.21-15.97,18.24-16.04Z"/>
      <path class="cls-1" d="M569.65,163.28c-13.42-.05-24.76-10.74-24.83-23.4-.08-13.42,11.4-24.12,25.76-24.01,12.68.1,24.11,11.4,24.04,23.78-.07,13.36-10.98,23.69-24.97,23.63Z"/>
      <path class="cls-5" d="M141.18,0c1.52.44,1.99,1.74,2.44,2.97,1.42,3.88,2.65,7.82,4.17,11.66,3.72,9.46,9.53,17,19.44,20.72.97.36,2.48.39,2.62,1.93.13,1.47-1.08,2-2.13,2.4-11.65,4.42-17.13,13.96-21.05,24.94-.95,2.68-1.34,6.94-4.59,6.93-3.37-.01-3.38-4.35-4.41-7.01-4.26-11.06-10.47-20.33-22.14-24.72-1.16-.44-2.22-1.18-2.41-2.33-.23-1.39,1.18-1.94,2.19-2.31,11.43-4.18,16.49-13.71,20.41-24.19.98-2.63,1.57-5.41,2.52-8.05.49-1.35,1.1-2.85,2.94-2.93Z"/>
      <path class="cls-3" d="M420.88,405.92c-3.45-.08-5.43-1.94-6.44-5.16-1.11-3.51-.06-6.34,2.82-8.29,3.02-2.04,6.25-3.79,9.48-5.49,31.98-16.91,64.22-33.31,97.01-48.6,2.03-.95,5.1-3.56,6.41-1.37,1.2,2.01-2.3,4-4.25,5.36-20,14.04-40.6,27.15-61.68,39.52-11.74,6.89-23.4,13.92-35.09,20.89-2.56,1.53-5.02,3.32-8.25,3.14Z"/>
      <path class="cls-3" d="M526,295.71c-6.41,6.21-13.71,9.96-20.54,14.23-25.6,15.99-51.41,31.63-77.15,47.39-1.27.78-2.58,1.51-3.91,2.17-2.79,1.37-5.77,2.53-8.13-.48-2.48-3.16-2.02-6.63.42-9.61,1.22-1.49,2.94-2.7,4.64-3.66,31.89-18,64.58-34.45,97.82-49.79,2.54-1.17,2.59-1.08,6.85-.26Z"/>
      <path class="cls-3" d="M59.71,145.89c-9.88-.14-19.54-1.49-28.43-6.11-6.1-3.18-9.71-9.4-9.04-14.85.78-6.3,5.49-10.59,12.11-11.08,12.31-.91,21.93,5.39,31.49,11.78,3.59,2.41,6.97,5.15,9.56,8.68,3.85,5.25,2.46,8.86-3.8,10.55-3.92,1.06-7.9.91-11.89,1.03Z"/>
      <path class="cls-3" d="M388.73,24.65c.03-7.98,6.02-14.03,13.8-13.95,8.71.1,14.33,5.77,14.33,14.48,0,7.87-6.07,13.97-13.89,13.95-8.66-.02-14.27-5.73-14.24-14.48Z"/>
      <path class="cls-3" d="M613.98,244.57c-1.36-.19-2.68-.31-3.98-.55-6.66-1.23-8.1-4.95-3.72-10,5.77-6.66,12.73-11.58,21.43-13.66,3.76-.9,7.34-.65,9.74,3,2.25,3.42,1.22,6.66-.79,9.76-5.34,8.23-13.78,10.29-22.68,11.46Z"/>
      <path class="cls-3" d="M586.81,206.11c-.48-6.56.46-12.47,2.39-18.17,1.26-3.72,3.22-7.1,7.96-7.01,4.66.09,7.05,3.03,8.67,7,.92,2.26,1.17,4.61.69,6.86-1.83,8.56-6.25,15.72-12.96,21.27-3.99,3.29-6.35,2.12-6.72-2.97-.18-2.48-.03-4.99-.03-6.98Z"/>
      <path class="cls-1" d="M226.54,49.96c6.59.08,11.46,5.2,11.32,11.88-.14,6.29-5.23,11.01-11.76,10.88-6.7-.13-11.53-5.17-11.35-11.86.16-6.23,5.3-10.98,11.79-10.9Z"/>
      <path class="cls-3" d="M165.72,89.04c.13,6.59-8.33,16.2-14.79,16.77-2.28.2-4.27-.31-5.61-2.42-4.95-7.76,2.37-22.18,11.52-22.67,5.46-.29,8.77,2.81,8.88,8.31Z"/>
      <path class="cls-1" d="M517.08,134.38c.06,5.71-3.9,9.61-9.72,9.58-5.5-.03-10.2-4.63-10.28-10.06-.09-5.62,4.05-10.11,9.4-10.19,6.16-.1,10.54,4.31,10.6,10.68Z"/>
      <path class="cls-5" d="M479.84,132.99c.03,5.81-3.89,9.91-9.43,9.86-5.71-.05-9.91-4.12-9.89-9.59.02-5.53,4.14-9.47,9.92-9.49,5.62-.02,9.37,3.66,9.4,9.22Z"/>
      <path class="cls-5" d="M9.25,205.07C3.8,205.09,0,201.73,0,196.9c0-4.79,4.28-8.87,9.41-8.97,4.97-.09,11.18,4.61,11.32,8.56.16,4.54-5.22,8.56-11.48,8.57Z"/>
    </g>
  </g>
</svg>